<svg data-name="Layer 1" xmlns="http://www.w3.org/2000/svg" viewBox="0 0 432 418"><g fill="#7347ff"><path d="M194 116c4-2 8-2 13 0-3-6-2-11 2-14a10 10 0 0 1 13 0c4 3 5 8 3 14 4-2 8-2 12 0a16 16 0 0 1-1-6c0-6 5-10 10-10 6 0 10 5 10 10l-2 8c-3 1-6 3-9 2l-5-1c2 4 2 7 2 11h10c-2-5-1-9 2-12 3-2 6-4 10-3a11 11 0 0 1 8 14l-1 2c5-2 9-2 13 2s4 9 2 14c5-3 10-2 13 1 4 4 5 9 2 14 6-2 11-2 15 4a10 10 0 0 1 0 11c-3 4-8 5-14 4 1 3 2 7 0 11 6-2 11-1 14 4a10 10 0 0 1 0 11c-3 5-7 6-13 5 0 3 1 6-1 10 7-2 12 0 15 6a10 10 0 0 1-2 11c-3 4-7 5-14 2 3 5 2 9 0 13a5 5 0 0 1-3 2c-3 2-7 3-11 1a11 11 0 0 1 0 11h2a10 10 0 0 1 12 14c-1 4-5 6-9 6a9 9 0 0 1-5-1l-3-2a34 34 0 0 1-3-6l1-6-5 1-5-1c1 4 1 7-1 11 4-1 6-2 9-1a43 43 0 0 1 4 2l2 3a10 10 0 0 1-14 14 10 10 0 0 1-5-11v-3c-3 1-7 2-11 0a16 16 0 0 1-1 12 5 5 0 0 1-2 2 26 26 0 0 1-5 2c-2 0-5 0-7-2v3c2 4-1 9-4 12a11 11 0 0 1-12 0 10 10 0 0 1-4-12l1-2a41 41 0 0 1-6 1l-6-1 1 3c1 4-1 7-4 10a10 10 0 0 1-11 2c-4-2-6-6-6-10l2-6c-5 3-9 2-13 0a5 5 0 0 1-3-2c-1-4-2-8-1-12-3 1-7 2-10-1v4a10 10 0 1 1-19-3l1-3 7-2h6l-1-5v-5c-3 1-6 1-10-1 2 5 1 9-1 13a4 4 0 0 0-1 0l-2 2a10 10 0 1 1-4-20l4 1-1-5v-6c-4 2-7 1-11 0l-2-3c-2-4-3-8-1-13-6 3-11 2-14-3a10 10 0 0 1-1-12c3-4 7-5 14-4v-10c-5 1-9 1-13-3a11 11 0 0 1-2-8c0-7 6-11 15-10a12 12 0 0 1 1-10c-6 2-11 1-15-5a10 10 0 0 1 1-11c3-4 8-5 14-3 0-3-2-6-1-9a12 12 0 0 1 7-7c3-1 6-1 10 1-3-6-2-10 2-14s8-4 13-2c-3-6-2-11 3-14a10 10 0 0 1 11-1c6 3 7 8 5 14a17 17 0 0 1 10 0 16 16 0 0 1 1-11l3-3m16 3c2 3 1 7 2 10h8v-5l2-5a12 12 0 0 1-12 0m-76 57c3-1 6-2 10 0a23 23 0 0 1 0-10c-4 1-7 1-10-1 1 4 2 7 0 11m154 0c4-2 7-1 10 0-3-4-1-7 0-11-4 2-7 2-10 1v10m-83 113h-9c0 4 1 7-1 10 3-2 7-2 11 0a45 45 0 0 0-1-5v-5m21 0v10c4-2 7-2 11 0-2-3-1-7-2-10a14 14 0 0 1-9 0m42-155c-4 2-7 3-11 1l1 9c3-1 6 0 9 1-2-4-1-7 1-11m-103 11a16 16 0 0 1 9-1 24 24 0 0 1 1-9c-4 2-7 1-11 0a13 13 0 0 1 1 10m-6 6c-3 1-7 0-11-1 3 4 3 7 2 11 3-2 6-1 9-2v-8m123-1a14 14 0 0 1-10 1 15 15 0 0 1 1 9 21 21 0 0 1 9 0 13 13 0 0 1 0-10m-148 77c2 4 1 7-1 11 4-2 7-2 10-2l-1-8a31 31 0 0 1-8-1m155 1v8h4l5 2c-2-4-2-7-1-11l-8 1m0-31a12 12 0 0 1 0 8 31 31 0 0 1 8 1v-9h-8m-155-1c2 4 1 7 1 10l8-1v-8c-3 1-6 0-9-1m117 78c-3 1-6 2-8 1v7l8 1c-1-3-2-5 0-9m-71 9c3-2 6-1 9-1v-7h-8c1 3 0 5-1 8m-30-31c2-1 5-2 8 0l-1-8h-7a14 14 0 0 1 0 8m132 0a15 15 0 0 1-1-8l-6 1c-1 2 0 4-2 7 4-2 6-1 9 0m-85-109l7-1v-5l-9-1c2 2 2 4 2 7m31 0h6c1-3 0-5 2-7l-9 1 1 6m-62 117v7h7l-1-7h-6m100 7v-8c-3 2-5 1-7 2v6h7m-54 15h7l-1-6a24 24 0 0 0-5 0l-1 6m-62-100a10 10 0 0 1 1 7l5-1 1-5a27 27 0 0 1-7-1m126 7h5v-6h-6l1 6m-93-32a8 8 0 0 0 4 0v-5l-5 1 1 4m67-4a11 11 0 0 0-6 0 9 9 0 0 0 1 4h4l1-4m-83 15a15 15 0 0 0 0 5l4-1a6 6 0 0 0 0-4h-4m109 47v5l4-1v-5a11 11 0 0 0-4 1m-120 4l-1-4a10 10 0 0 0-4-1l1 6a12 12 0 0 0 4-1m104-51a6 6 0 0 0 0 4l5 1v-5h-5"/><path d="M131 254l2 3c3 4 2 10-2 13-3 3-8 3-12 1a10 10 0 0 1-4-12c1-3 5-7 9-7a15 15 0 0 1 7 2M194 116l-3 3a11 11 0 0 1-14-3c-2-3-3-8 0-11 3-5 6-6 11-4 4 0 8 5 8 8a14 14 0 0 1-2 7M298 256a5 5 0 0 0 3-2 14 14 0 0 1 6-2c5 0 10 4 10 9 1 5-2 10-7 11-5 2-11-1-13-6a12 12 0 0 1 1-10M332 217c1 5-5 10-10 10s-10-5-10-10 5-10 10-10 11 5 10 10M109 227c-5 0-10-5-10-10s5-11 11-10c4 0 10 4 10 10-1 5-5 10-11 10"/><path d="M332 247a10 10 0 1 1-10-10 10 10 0 0 1 10 10M253 302a5 5 0 0 0 2-2l3-1a10 10 0 1 1-6 5l1-2M176 300a5 5 0 0 0 3 2l1 2a10 10 0 1 1-6-5l2 1M109 196a10 10 0 1 1 10-10 10 10 0 0 1-10 10M322 176a10 10 0 1 1-10 11 10 10 0 0 1 10-11M109 237a10 10 0 1 1-10 10 10 10 0 0 1 10-10M140 135a10 10 0 1 1 10-10 10 10 0 0 1-10 10M292 116a10 10 0 1 1-10 9 10 10 0 0 1 10-9M231 85a10 10 0 1 1-10 10c0-5 5-10 10-10M211 95a10 10 0 1 1-11-10 10 10 0 0 1 10 10M134 141a10 10 0 1 1-9-10 10 10 0 0 1 9 10"/><path d="M317 141a10 10 0 1 1-10-10 10 10 0 0 1 10 10M226 323a10 10 0 1 1-10-10 10 10 0 0 1 10 10M287 110c-1 6-6 10-11 10s-9-5-9-10 5-10 10-10c5 1 10 6 10 10M155 120c-5 0-10-4-10-10a10 10 0 1 1 20 0c0 6-5 10-10 10M195 323c0 5-4 10-9 10s-11-5-10-10c0-5 4-9 9-9 6 0 10 3 10 9M246 313c5 0 10 5 10 10s-5 10-10 10-9-4-10-10c0-5 4-9 10-10M322 146c6 1 10 5 10 10a10 10 0 1 1-19 0c0-6 4-9 9-10M109 146a10 10 0 1 1-9 10 10 10 0 0 1 9-10M94 211c-5 0-9-4-9-9 0-6 3-10 9-10s9 4 9 10c0 5-3 9-9 9M337 211c-5 0-9-4-9-9 0-6 4-10 10-10 5 0 9 4 9 10 0 5-4 9-10 9M140 317a9 9 0 1 1 9-9 9 9 0 0 1-9 9M179 95a9 9 0 1 1-9-9 9 9 0 0 1 9 9M271 95a9 9 0 1 1-10-9 9 9 0 0 1 10 9M301 308a9 9 0 1 1-9-9 9 9 0 0 1 9 9M134 293a9 9 0 1 1-9-9 9 9 0 0 1 9 9M103 232a9 9 0 1 1-9-9 9 9 0 0 1 9 9M109 268a9 9 0 1 1-9 10 9 9 0 0 1 9-10M347 232a9 9 0 1 1-10-9 9 9 0 0 1 10 9M332 278a9 9 0 1 1-10-10 9 9 0 0 1 10 10M316 293a9 9 0 1 1-9-9 9 9 0 0 1 9 9M94 162a9 9 0 1 1-9 9 9 9 0 0 1 9-9"/><path d="M347 171a9 9 0 1 1-9-9 9 9 0 0 1 9 9M210 338a9 9 0 1 1-9-9 10 10 0 0 1 9 9M240 338a9 9 0 1 1-9-9 10 10 0 0 1 9 9M225 80a9 9 0 1 1-9-9 10 10 0 0 1 9 9M155 314a9 9 0 1 1-9 9 10 10 0 0 1 9-9M277 314a9 9 0 1 1-10 9 10 10 0 0 1 10-9M246 89c-6-2-7-3-9-9 1-5 4-8 9-9 6 0 9 3 9 9 0 5-3 8-9 9M194 80c0 5-3 8-9 9-5-1-8-4-9-9 1-5 4-8 9-9 6 0 9 3 9 9M337 272c-5-1-8-4-9-10 0-4 5-9 10-9 4 1 9 5 9 10-1 4-5 9-10 9M85 262c2-6 5-9 10-9 4 1 8 5 8 10a10 10 0 0 1-8 8c-5 1-9-2-10-9M133 110c0 5-3 9-8 9s-9-3-9-8 2-9 8-9c5-1 9 2 9 8M316 110c-1 6-4 9-9 9-6 0-9-4-9-9a9 9 0 0 1 9-9 9 9 0 0 1 9 9M331 126a9 9 0 1 1-8-9 9 9 0 0 1 8 9M109 134a9 9 0 1 1 9-9 9 9 0 0 1-9 9M261 330c5-1 9 4 9 8a9 9 0 1 1-17 0c0-4 4-9 8-8M170 330c5-1 9 4 9 8a9 9 0 1 1-18 0c1-4 4-9 9-8M87 217a9 9 0 1 1-8-9 8 8 0 0 1 8 9M140 87a9 9 0 1 1-9 8 8 8 0 0 1 9-8M292 104a9 9 0 1 1 8-9 8 8 0 0 1-8 9M353 208a9 9 0 1 1-9 9 8 8 0 0 1 9-9M361 247a9 9 0 1 1-8-8 8 8 0 0 1 8 8M94 149a9 9 0 1 1 9-8 8 8 0 0 1-9 8M338 132a9 9 0 1 1-9 8 8 8 0 0 1 9-8M87 186a9 9 0 1 1-8-8 8 8 0 0 1 8 8M353 195a9 9 0 1 1 8-9 8 8 0 0 1-8 9M87 247a8 8 0 1 1-8-8 9 9 0 0 1 8 8M109 300a8 8 0 1 1-8 8 9 9 0 0 1 8-8M163 80a8 8 0 1 1-8-9 9 9 0 0 1 8 9M216 362a8 8 0 1 1 8-8 9 9 0 0 1-8 8M277 88a8 8 0 1 1 8-8 9 9 0 0 1-8 8M231 73a8 8 0 0 1 0-17c5 0 9 5 8 9a9 9 0 0 1-8 8M331 308a8 8 0 1 1-9-8 9 9 0 0 1 9 8M201 73a8 8 0 1 1 8-8 9 9 0 0 1-8 8M125 332a8 8 0 1 1 8-9 9 9 0 0 1-8 9M307 315c5 0 9 4 8 9a9 9 0 0 1-8 8c-4 0-9-5-8-9a9 9 0 0 1 8-8M353 164c-6-1-9-4-9-9s5-8 9-7a9 9 0 0 1 8 7c1 5-3 8-8 9M246 362c-5-1-8-3-8-8 1-6 4-9 8-9a9 9 0 0 1 9 8c0 4-3 8-9 9M338 301c-6-1-7-2-9-8 1-6 4-9 9-8a9 9 0 0 1 8 7c0 4-3 8-8 9M185 345c5 1 8 4 9 9-2 5-5 8-9 8a9 9 0 0 1-8-8c0-4 3-7 8-9M87 156c0 5-3 8-8 8s-8-3-8-8 3-8 8-8 7 3 8 8M94 284c5 1 8 4 8 9 0 4-3 7-8 8-5 0-7-3-8-8 0-5 3-8 8-9M148 338a8 8 0 1 1-8-8 8 8 0 0 1 8 8M292 330a8 8 0 1 1-8 9 8 8 0 0 1 8-9M368 240a8 8 0 1 1 8-7 8 8 0 0 1-8 7M269 65a8 8 0 1 1-8-8 7 7 0 0 1 8 8M71 201a8 8 0 1 1-8-7 7 7 0 0 1 8 7M376 202c0 4-4 8-9 7-4 0-7-3-7-8a8 8 0 0 1 16 1M170 57a8 8 0 1 1-8 8 7 7 0 0 1 8-8M71 232a8 8 0 1 1-7-8 8 8 0 0 1 7 8M79 270a8 8 0 1 1-8 8 8 8 0 0 1 8-8M353 285a8 8 0 1 1 7-8 7 7 0 0 1-7 8M163 354a8 8 0 1 1-8-8 8 8 0 0 1 8 8M277 361a8 8 0 1 1 7-7 8 8 0 0 1-7 7M64 179a8 8 0 1 1 7-8 8 8 0 0 1-7 8M117 95a8 8 0 1 1-8-8 8 8 0 0 1 8 8M322 87a8 8 0 1 1-7 8 8 8 0 0 1 7-8M338 118a8 8 0 1 1 7-8 8 8 0 0 1-7 8M368 179a8 8 0 1 1 8-8 8 8 0 0 1-8 8M124 88a8 8 0 0 1-7-8c0-4 4-8 8-8a8 8 0 0 1-1 16M315 80c0 4-4 8-8 8a8 8 0 0 1-8-8c1-4 4-8 8-8a8 8 0 0 1 8 8M102 110a8 8 0 1 1-8-7 8 8 0 0 1 8 7M231 361c5 2 6 3 8 8-1 4-3 7-8 8-4-1-7-4-8-8 1-5 4-7 8-8M201 361a8 8 0 0 1 7 8c0 4-4 8-8 7-3 0-7-3-7-7a8 8 0 0 1 8-8M216 42c5 1 6 2 7 7 0 5-3 7-7 8-5-1-8-4-8-7 0-4 3-7 8-8M64 255q6 1 7 7c0 5-3 7-7 8-5-1-7-3-8-8 1-4 3-7 8-7M368 255c5 1 6 2 7 7 0 5-3 7-7 8-4-1-7-3-8-8 1-4 3-7 8-7M360 125c0 5-3 7-7 8-4 0-7-3-8-7 1-5 3-7 8-8 4 0 7 3 7 7M79 118c4 1 7 3 7 7 0 5-2 7-7 8-4 0-7-3-8-7 1-5 3-7 8-8M246 42a7 7 0 1 1-7 7 8 8 0 0 1 7-7M193 49a7 7 0 1 1-8-7 8 8 0 0 1 8 7M147 65c0 4-3 7-7 7s-7-3-7-7c0-5 2-7 7-7a7 7 0 0 1 7 7M299 64c0 5-3 8-7 8s-7-3-7-7 2-7 7-7c4 0 7 2 7 6M94 330a7 7 0 1 1 7-7 7 7 0 0 1-7 7M344 323a7 7 0 1 1-6-7 7 7 0 0 1 6 7M268 369a7 7 0 1 1-6-7 7 7 0 0 1 6 7M177 369a7 7 0 1 1-7-7 7 7 0 0 1 7 7M79 315a7 7 0 1 1 7-7 7 7 0 0 1-7 7M329 339a7 7 0 1 1-7-8 7 7 0 0 1 7 8M63 134a7 7 0 1 1-6 7 7 7 0 0 1 6-7M314 354a7 7 0 1 1-7-7 7 7 0 0 1 7 7M125 361a7 7 0 1 1 6-7 7 7 0 0 1-6 7M375 141a7 7 0 1 1-7-7 7 7 0 0 1 7 7M383 210a7 7 0 1 1-7 6 7 7 0 0 1 7-6M55 217a7 7 0 1 1-7-7 7 7 0 0 1 7 7M109 345a7 7 0 1 1 7-6 7 7 0 0 1-7 6M48 193a7 7 0 1 1 7-7 7 7 0 0 1-7 7M390 187a7 7 0 1 1-7-8 7 7 0 0 1 7 8M353 315a7 7 0 1 1 7-7 7 7 0 0 1-7 7M155 43q6 0 7 6-1 7-7 7c-4 0-6-2-7-7 1-4 3-6 7-6M277 56c-5 0-7-3-7-7s2-6 7-6c4 0 6 2 6 6s-2 7-6 7M383 240a7 7 0 1 1-7 7 7 7 0 0 1 7-7M55 247c0 4-2 7-6 7s-7-3-7-7 2-6 6-7c4 1 7 3 7 7M375 293c-1 4-3 6-7 7-4-1-6-3-7-7 1-4 3-6 7-7 4 1 6 3 7 7M222 384a7 7 0 1 1-6-6 7 7 0 0 1 6 6M64 299a7 7 0 1 1 6-6 7 7 0 0 1-6 6M247 378a6 6 0 0 1 5 6c0 4-2 7-6 6a6 6 0 0 1 1-12M383 150a6 6 0 1 1-6 6 6 6 0 0 1 6-6M48 162a6 6 0 1 1 7-6 6 6 0 0 1-7 6M207 34a6 6 0 1 1-6-6 6 6 0 0 1 6 6M237 34a6 6 0 1 1-6-6 6 6 0 0 1 6 6M192 384a6 6 0 0 1-13 0c0-4 3-6 7-6a6 6 0 0 1 6 6M298 369a6 6 0 1 1-6-6 6 6 0 0 1 6 6M139 375a6 6 0 0 1-6-6c1-4 3-7 7-6 4 0 6 3 6 6 0 4-3 6-7 6M377 277a6 6 0 1 1 6 7 6 6 0 0 1-6-7M359 95a6 6 0 1 1-6-6 6 6 0 0 1 6 6M85 95a6 6 0 1 1-6-6 6 6 0 0 1 6 6M109 71a6 6 0 1 1 6-6 6 6 0 0 1-6 6M100 80a6 6 0 1 1-6-6 6 6 0 0 1 6 6M322 71a6 6 0 1 1 6-7 6 6 0 0 1-6 7M344 80a6 6 0 1 1-6-6 6 6 0 0 1 6 6M49 271a7 7 0 0 1 6 7 6 6 0 1 1-13-1 7 7 0 0 1 7-6M268 34a7 7 0 0 1-6 6c-4 0-6-2-7-6 1-3 3-5 6-6 4 0 6 2 7 6M170 40c-3 0-6-3-6-6s3-6 6-6 6 3 6 6-3 6-6 6M368 116a7 7 0 0 1-6-6c0-3 2-5 6-6 3 1 5 2 6 6 0 4-2 6-6 6M404 202c0 3-2 5-6 6a7 7 0 0 1-6-6c1-4 3-6 6-7 4 1 6 3 6 7M58 110c0-3 2-5 6-6a7 7 0 0 1 6 6c-1 4-2 5-6 6-4-1-5-1-6-6M33 195c4 1 6 3 6 6a7 7 0 0 1-6 7c-3-1-5-3-6-6a7 7 0 0 1 6-7M404 232c-1 4-1 5-6 6a7 7 0 0 1-6-6 7 7 0 0 1 6-6 7 7 0 0 1 6 6M33 226a6 6 0 1 1-6 6 6 6 0 0 1 6-6M125 55a6 6 0 1 1 5-6 6 6 0 0 1-5 6M313 50a6 6 0 1 1-6-6 6 6 0 0 1 6 6M282 384a6 6 0 1 1-5-6 6 6 0 0 1 5 6M161 384a6 6 0 1 1-6-6 6 6 0 0 1 6 6M54 126a5 5 0 1 1-5-6 5 5 0 0 1 5 6M383 131a5 5 0 1 1 6-6 5 5 0 0 1-6 6M343 354a5 5 0 1 1-5-6 5 5 0 0 1 5 6M100 354a5 5 0 1 1-6-6 5 5 0 0 1 6 6M33 166a5 5 0 1 1-5 5 5 5 0 0 1 5-5M404 171a6 6 0 1 1-6-5 5 5 0 0 1 6 5M353 344a5 5 0 1 1 5-5 5 5 0 0 1-5 5M84 338a5 5 0 1 1-5-5 5 5 0 0 1 5 5M368 318a5 5 0 1 1-6 5 6 6 0 0 1 6-5M404 262a5 5 0 1 1-6-5 6 6 0 0 1 6 5M69 323a5 5 0 1 1-5-5 6 6 0 0 1 5 5M236 399a5 5 0 1 1-5-5 6 6 0 0 1 5 5M210 19c1-3 3-5 6-5a6 6 0 0 1 5 5 6 6 0 0 1-5 5c-3 0-5-2-6-5M33 257a5 5 0 1 1 0 11 5 5 0 0 1 0-11M206 399a5 5 0 1 1-5-5 6 6 0 0 1 5 5M109 364c3 0 5 2 6 5a6 6 0 0 1-6 5 6 6 0 0 1-5-5c0-3 2-5 5-5M322 364c3 0 5 2 6 5a6 6 0 0 1-6 5 6 6 0 0 1-5-5c0-3 2-5 5-5M286 34c1-3 3-5 6-5a6 6 0 0 1 5 5 6 6 0 0 1-5 6c-3-1-5-2-6-6M140 29a6 6 0 0 1 5 5c0 3-2 5-5 6-3-1-5-3-6-6a6 6 0 0 1 6-5M383 313a5 5 0 1 1 5-5 5 5 0 0 1-5 5M190 20a5 5 0 1 1-4-6 5 5 0 0 1 4 6M251 19a5 5 0 1 1-5-5 5 5 0 0 1 5 5M48 303a5 5 0 1 1-4 5 4 4 0 0 1 4-5M266 399a5 5 0 1 1-5-4 5 5 0 0 1 5 4M170 395a5 5 0 1 1-5 4 5 5 0 0 1 5-4M307 389a5 5 0 1 1 5-5 5 5 0 0 1-5 5M125 389a5 5 0 1 1 4-5 5 5 0 0 1-4 5M38 141a5 5 0 1 1-5-5 5 5 0 0 1 5 5M403 141a5 5 0 1 1-5-5 5 5 0 0 1 5 5M18 191c-3-1-3-1-5-5a5 5 0 0 1 5-4 5 5 0 0 1 5 4c-1 3-2 4-5 5M414 182a5 5 0 0 1 4 4q0 4-4 5a5 5 0 1 1 0-9M368 75c3 1 4 2 4 5a5 5 0 0 1-4 4c-3 0-4-1-5-4 1-3 2-4 5-5M357 65c-1 3-1 3-4 4a5 5 0 1 1 4-4M83 65a5 5 0 0 1-4 4 5 5 0 1 1 4-4M13 217a5 5 0 1 1 5 4 5 5 0 0 1-5-4M414 212a5 5 0 1 1-1 9 5 5 0 0 1 1-9M398 288a5 5 0 0 1 5 5 4 4 0 0 1-9 0 5 5 0 0 1 4-5M33 297a5 5 0 0 1-4-4 5 5 0 0 1 4-5 4 4 0 1 1 0 9M64 75c3 2 3 2 4 5a4 4 0 1 1-9 0c1-3 2-4 5-5M338 54a5 5 0 0 1-5-5 5 5 0 0 1 4-4 4 4 0 1 1 1 9M277 23c-3-1-3-1-5-4a5 5 0 0 1 4-4c3 0 4 1 5 4 0 2-2 4-4 4M159 19a5 5 0 0 1-4 4 5 5 0 0 1-4-4 4 4 0 1 1 8 0M418 247a5 5 0 0 1-4 5 4 4 0 1 1 0-9c3 1 3 1 4 4M387 95a4 4 0 1 1-4-4 4 4 0 0 1 4 4M52 95a4 4 0 1 1-7 0 4 4 0 0 1 4-4 4 4 0 0 1 3 4M98 49a4 4 0 1 1-4-4 4 4 0 0 1 4 4M22 247a4 4 0 0 1-4 4 4 4 0 0 1 0-8 4 4 0 0 1 4 4M144 399a4 4 0 1 1-4-4 4 4 0 0 1 4 4M296 399a4 4 0 1 1-4-4 4 4 0 0 1 4 4M220 414a4 4 0 1 1-4-3 4 4 0 0 1 4 3M22 156a4 4 0 1 1-4-4 4 4 0 0 1 4 4M417 156a4 4 0 1 1-3-4 4 4 0 0 1 3 4M322 38a4 4 0 1 1 4-4 4 4 0 0 1-4 4M204 4a5 5 0 0 1-3 4 4 4 0 0 1-4-4 4 4 0 0 1 3-4 4 4 0 0 1 4 4M235 4l-4 4a4 4 0 0 1-4-4 4 4 0 0 1 4-4 4 4 0 0 1 4 4M109 30a5 5 0 0 1 4 4 4 4 0 1 1-8 0 5 5 0 0 1 4-4M246 418a4 4 0 0 1-3-3 4 4 0 1 1 7 0l-4 3M30 110a4 4 0 0 1 3-3 4 4 0 0 1 4 3 4 4 0 0 1-4 4 4 4 0 0 1-3-4M402 110a4 4 0 0 1-4 4 4 4 0 0 1-3-4 4 4 0 0 1 3-3 4 4 0 0 1 4 3M185 411l4 3a4 4 0 0 1-4 4l-3-3c0-2 1-4 3-4M417 278a3 3 0 1 1-7 0 3 3 0 0 1 3-4 3 3 0 0 1 4 4M353 372a3 3 0 1 1 3-3 3 3 0 0 1-3 3M79 366a3 3 0 1 1-3 3 3 3 0 0 1 3-3M310 19a3 3 0 1 1-6 0 3 3 0 0 1 3-3 3 3 0 0 1 3 3M128 19a4 4 0 0 1-3 3 3 3 0 0 1-4-3 3 3 0 0 1 3-3c2 0 3 1 4 3M368 351a3 3 0 1 1-3 3 3 3 0 0 1 3-3M64 351a3 3 0 1 1-3 2 3 3 0 0 1 3-2M21 278a3 3 0 1 1-3-4 3 3 0 0 1 3 4M170 1a3 3 0 1 1 0 6 3 3 0 0 1-3-3 3 3 0 0 1 3-3M265 4a3 3 0 1 1-7 0 3 3 0 0 1 3-3 3 3 0 0 1 4 3M383 342a3 3 0 1 1 0-7 3 3 0 0 1 3 3 3 3 0 0 1-3 4M52 339a3 3 0 1 1-7-1 3 3 0 0 1 4-3 3 3 0 0 1 3 4M277 417l-3-2a3 3 0 0 1 3-3 3 3 0 0 1 2 2 3 3 0 0 1-2 3M155 417a3 3 0 0 1-3-2 3 3 0 0 1 3-3l3 2a3 3 0 0 1-3 3M429 229l3 3-3 3a3 3 0 0 1-3-3l3-3M337 387c-1 0-2-1-2-3a3 3 0 0 1 2-3 3 3 0 0 1 3 3 3 3 0 0 1-3 3M91 384a3 3 0 0 1 3-3 3 3 0 0 1 3 3 3 3 0 0 1-3 3l-3-3M426 202a3 3 0 0 1 3-3 3 3 0 0 1 3 3l-3 2c-2 0-3-1-3-2M0 202a3 3 0 0 1 3-3 3 3 0 0 1 3 2 3 3 0 0 1-3 3 3 3 0 0 1-3-2M5 232a2 2 0 0 1-2 2 2 2 0 0 1-3-2 2 2 0 1 1 5 0M429 174a2 2 0 0 1-3-3 2 2 0 1 1 5 0 2 2 0 0 1-2 3M398 321a2 2 0 0 1 3 2 2 2 0 0 1-3 3 2 2 0 0 1-2-3 2 2 0 0 1 2-2M109 397a2 2 0 0 1 3 3 2 2 0 0 1-3 2 2 2 0 0 1-2-3 2 2 0 0 1 2-2M33 321a2 2 0 0 1 3 2 2 2 0 0 1-3 3 2 2 0 1 1 0-5M5 171a2 2 0 0 1-2 2 2 2 0 0 1-2-2 2 2 0 0 1 2-2 2 2 0 0 1 2 2M18 123a2 2 0 0 1 2 2 2 2 0 0 1-2 3 2 2 0 0 1-2-2 2 2 0 0 1 2-3M413 128a2 2 0 0 1-2-3 2 2 0 0 1 3-2 2 2 0 1 1-1 5"/></g></svg>