<svg id="Layer_1" data-name="Layer 1" xmlns="http://www.w3.org/2000/svg" viewBox="0 0 431.655 418.391"><title>Untitled-11</title><g id="Page-1"><path id="Fill-259" d="M228.1,156.9c4.186-1.932,8.4-2.573,12.776-.017-2.31-6.477-1.411-11.128,2.595-14.194a10.289,10.289,0,0,1,12.661-.2c4.264,3.057,5.255,7.723,2.941,14.321,4.06-2.176,8.048-2.141,12.572.2a16.467,16.467,0,0,1-1.42-6.685c.258-5.528,4.5-9.382,10.183-9.588,5.865-.213,10.174,5.339,10.2,9.66.015,3.136-1.44,5.533-2.6,8.15-2.906,1.482-5.746,3.022-9.258,2.5-1.43-.211-2.684-1.055-4.589-1.3,2.444,3.568,1.96,7.077,1.54,10.692,3.273-1.015,6.446-.737,10,.077-1.649-4.777-.534-8.589,2.267-12.013,3.152-2.367,6.449-3.9,10.559-2.561a10.519,10.519,0,0,1,7.134,13.459c-.211.7-.449,1.4-.8,2.488,5.023-1.907,9.555-2.1,13.486,1.826s3.923,8.423,1.74,13.709c5.183-2.545,9.6-2.2,13.365,1.5,3.884,3.822,4.274,8.346,1.614,13.772,6.357-2.56,11.5-1.905,15.145,3.556a10.374,10.374,0,0,1-.479,11.763c-2.958,3.97-7.122,5.028-13.712,3.245,1.586,3.618,1.966,7.12.124,11.07,6.166-2.016,11.03-.787,14.328,4.333a9.743,9.743,0,0,1-.06,11.133c-3.143,4.77-7.72,6.222-13.6,4.437.626,3.494,1.4,6.69-.514,10.338,6.789-1.7,11.706-.144,14.654,5.649a10.053,10.053,0,0,1-1.87,11.6c-3.372,3.643-7.353,4.351-13.506,2.215,2.324,4.336,1.663,8.4-.316,12.4a5.14,5.14,0,0,1-2.622,2.62c-3.608,1.783-7.313,2.582-11.81.653a11.343,11.343,0,0,1,.062,10.615c.854.912,1.522.139,2.16-.054a10.414,10.414,0,0,1,12.536,13.97c-1.731,4.1-5.029,5.88-9.109,6.5a8.879,8.879,0,0,1-5.088-1.244c-1.023-.494-2-1.08-3-1.626a33.741,33.741,0,0,1-2.751-6.166c-.608-2.309.924-4.276.775-6.511-1.81.464-3.38.884-4.959,1.269-1.612.395-3.131-.792-5.138-.4,1.162,3.405.465,6.615-.78,10.206,3.142-1.068,5.851-1.577,8.528-.591a42.575,42.575,0,0,1,4.35,2.158c.08,1.09.936,1.763,1.411,2.639A10.315,10.315,0,0,1,306.242,342.7a10.2,10.2,0,0,1-5.543-11.01c.189-.979.432-1.947.743-3.32-3.628.961-7.142,2.088-11.113-.236a15.627,15.627,0,0,1-.814,12.135,4.888,4.888,0,0,1-2.25,2.285,26.057,26.057,0,0,1-4.628,1.569c-2.638.392-5.324.407-7.7-1.175-.884,1.033.024,1.783.29,2.476,1.711,4.472-.767,9.568-3.864,11.8a10.724,10.724,0,0,1-12.09.209,10.474,10.474,0,0,1-4.214-11.621c.161-.611.34-1.217.613-2.2a40.6,40.6,0,0,1-5.408,1.127c-1.89.141-3.7-.641-5.642-1.187-.571.991.089,1.914.3,2.761,1.048,4.3-.4,7.778-3.62,10.462a9.728,9.728,0,0,1-10.993,1.373c-3.924-1.845-5.828-5.18-6.116-9.349-.137-1.977.633-3.924,1.877-6.315-4.783,2.771-9.088,1.974-13.357.109a4.852,4.852,0,0,1-2.285-2.252c-1.569-3.673-2.595-7.4-.782-11.807-3.819,1.154-7.358,1.76-10.643-.44-.852,1.51.075,2.516.261,3.544a10.313,10.313,0,1,1-19.188-3.162c.475-.879,1.334-1.554,1.413-2.642,2.133-.673,3.814-2.252,6.176-2.624,2.265-.358,4.3.8,6.541.658-.47-1.83-.879-3.4-1.274-4.977-.4-1.606.844-3.126.352-5.115-3.4,1.212-6.612.541-10.325-.829,2.317,4.772,1.364,8.606-1.142,12.227a3.737,3.737,0,0,0-.3.688c-.772.427-1.562.829-2.314,1.288a10.382,10.382,0,1,1-3.812-19.175c1.095.164,2.16.519,3.491.847-.432-1.972-.906-3.747-1.2-5.55-.286-1.763.839-3.35.908-5.408-4.017,1.877-7.71.784-11.363-.723-.655-1.07-2.163-1.328-2.547-2.659-1.935-4.008-2.707-8.076-.318-12.4-6.618,2.1-11.063,1.075-14.227-3.092a10.319,10.319,0,0,1-.491-12.081c2.647-4.172,6.993-5.686,13.33-4.465-.557-3.265-1.16-6.478.429-10.094-5.048,1.175-9.354.822-12.756-3.032a10.508,10.508,0,0,1-2.731-8.02c.481-6.993,6.354-10.569,15.663-9.365a11.694,11.694,0,0,1,.5-10.737c-6.176,2.218-11.122,1.182-14.5-4.164a10.313,10.313,0,0,1,.762-11.743c3.117-3.958,7.321-4.852,14.067-2.811-.695-3.107-2-6.022-.762-9.146a11.686,11.686,0,0,1,6.643-6.883c3.148-1.314,6.123-.566,9.523.919-2.25-5.431-2.126-10.047,2.083-13.946,3.861-3.581,8.165-3.481,13.211-1.373-2.5-5.952-1.91-11.023,3.27-14.7a9.689,9.689,0,0,1,11.1-.489c5.187,3.045,6.295,7.8,4.889,13.635a17.427,17.427,0,0,1,9.995.04,16.486,16.486,0,0,1,1.045-11.067c1.078-.668,1.349-2.186,2.695-2.573m16.088,3.164c2.25,2.952.971,6.458,1.766,10.047,2.741-1.657,5.458-.626,8.378-.467,0-1.905.042-3.526-.012-5.143-.052-1.646,1.058-2.967,1.487-4.8a11.767,11.767,0,0,1-11.619.363m-76.365,56.907c3.561-1.12,6.647-2.1,10.067-.688a22.636,22.636,0,0,1,.24-9.846c-3.657,1.574-6.786.735-10.382-.745,1.508,3.924,2.315,7.328.075,11.279m154.467-.569c3.58-1.711,6.4-.313,9.915.5-2.652-3.856-1.266-7.347-.161-11.509-3.554,2.267-6.725,2.262-10.311,1.246,1.086,3.181.912,6.134.557,9.764m-83.4,113.067c-2.846,1.443-5.545.76-8.515.4-.156,3.409.581,6.767-1.552,9.769,3.685-2.046,7.311-1.674,11.073-.472a44.751,44.751,0,0,0-1.1-4.388c-.561-1.557.44-2.97.1-5.309m21.723.055c1,3.65.368,6.528-.852,10.149,3.993-2.431,7.465-1.634,11.666.089-2.537-3.521-1.457-6.826-2.17-10a14.114,14.114,0,0,1-8.644-.233m41.07-154.45c-3.76,1.811-6.906,2.2-10.673.932,1.3,3.195.559,6.088,1.279,9.086,2.9-1.232,5.542-.149,8.4.28-1.177-3.419-.75-6.471.991-10.3M199.072,185.742a15.981,15.981,0,0,1,8.957-.857,23.5,23.5,0,0,1,1.028-9.383c-4,2.282-7.161.869-10.65.029a12.644,12.644,0,0,1,.665,10.211m-5.629,5.386c-3.755,1.776-6.864.79-10.9-.648,2.737,3.668,2.161,6.988,1.614,10.646,2.938-1.637,5.821-.512,8.652-1.344-.912-2.788-.355-5.351.638-8.654M316.453,191a14.334,14.334,0,0,1-9.864.5,14.62,14.62,0,0,1,.6,8.662,20.51,20.51,0,0,1,8.7.623,13.4,13.4,0,0,1,.567-9.781M168.487,268.028c1.46,3.7,1.147,6.836-.847,10.521,3.427-1.885,6.474-1.887,9.707-1.644-.961-2.7-.3-5.247-.72-7.859a30.818,30.818,0,0,1-8.14-1.018m154.76,1.053c-.234,2.853.188,5.336-.552,7.784,1.873.268,3.323-.347,4.877-.037,1.4.278,2.7,1,4.736,1.331-2.555-3.362-1.815-6.638-1.3-10.2-2.664,1.137-5.083.9-7.757,1.12m-.524-31.271a12.332,12.332,0,0,1,.481,8.035,30.92,30.92,0,0,1,8.066.763c-1.354-3.328-.718-6.26-.109-9.34-2.759.817-5.151,1.686-8.438.542m-154.571-.723c1.922,3.467,1.209,6.432.767,9.757,2.7-1.274,5.277-.683,7.9-1.374-1.088-2.465-.472-4.805,0-7.529-2.908,1.006-5.3.159-8.671-.854M284.8,315.1c-2.977.957-5.286,1.237-8.075.127,1.2,2.761.075,4.937.156,7.375,2.866.169,5.615-.38,8.421.9-.668-2.868-1.7-5.23-.5-8.406m-70.316,8.649c3.032-1.765,5.883-.68,8.649-1.393-.253-2.324-1.053-4.479.042-7.216-2.905,1.331-5.222.693-8.068.124,1.252,2.921.226,5.267-.623,8.485M183.92,292.681c2.726-.586,5.167-1.753,8.5-.368-1.649-2.759-.64-5.133-1.567-7.236-2.11-.213-4.082-.027-6.262-.688a14.073,14.073,0,0,1-.673,8.292m131.974.052a15.274,15.274,0,0,1-.6-8.408c-2.314.958-4.457.293-6.511.983-.375,2.2.2,4.356-1.152,6.884,3.183-1.143,5.547-.251,8.259.541m-84.5-109.268c2.116-.293,4.174.36,6.486-.626-.67-1.924.541-3.652.335-5.718-2.629-.356-5.214.216-8.592-.932,1.945,2.635,1.158,4.887,1.771,7.276m31.052-.221h6.173c.333-2.26.028-4.477,1.173-7.055-3.015,1.3-5.56.455-8.19.981.288,2.069.554,3.993.844,6.074m-62.087,117.15c.941,2.418-.447,4.6-.35,7.034,2.56-.312,4.805-.9,7.422-.3-.857-2.215-.777-4.112-1.125-6.019-1.974-.492-3.948.062-5.947-.715m99.638,7.064c-.333-2.6-1.105-4.758-.04-7.569-2.384,1.294-4.455.619-6.65,1.431.365,1.9-.327,3.67-.64,6.131,2.488-1.247,4.621-.214,7.33.007M246.188,323c2.791-1.309,5.029-.5,7.435-.551-.35-1.982-.648-3.673-.991-5.607a23.776,23.776,0,0,0-5.4.141c-.318,1.835-.611,3.521-1.046,6.017m-61.8-100.187a10.481,10.481,0,0,1,.581,7.107l5.4-1.06c.122-1.9.231-3.586.345-5.381a26.811,26.811,0,0,1-6.327-.666M309.708,229.3c1.778-.472,3.223.616,5.207.434-.672-2.16-.263-4.206.147-6.451-2.222.161-4.048.3-6.081.445.623,1.633.231,3.292.727,5.572m-93-31.773a7.711,7.711,0,0,0,4.895-.024c-.328-1.565.541-3.042-.6-4.664-1.587.39-3.32-.489-4.952.405-.2,1.554.452,2.828.658,4.283m67.111-4.38a11.143,11.143,0,0,0-5.431.07,9.19,9.19,0,0,0,.435,4.693c1.485-.33,2.99.457,4.393-.509.146-1.4.814-2.67.6-4.254m-83,15.217a15.192,15.192,0,0,0,.2,5.083l4.288-.511a5.938,5.938,0,0,0,.007-4.008c-1.42-.107-2.748-.951-4.494-.564m109.37,47.248c-.092,1.644-.172,3.069-.256,4.576,1.641-.025,2.989.333,4.561-.285-.2-1.766.281-3.472-.325-5.183a10.592,10.592,0,0,0-3.98.892m-120.125,4.462c-.169-1.646-.318-3.109-.464-4.539a10.407,10.407,0,0,0-4.192-.78c.273,1.82-.424,3.63.43,5.384a12.215,12.215,0,0,0,4.226-.065m104.49-51.134a5.777,5.777,0,0,0,.082,4.043l4.517.464c-.856-1.755.537-3.427-.218-5.118-1.577-.258-2.846.477-4.381.611" transform="translate(-34.154 -40.609)" style="fill:#7347ff"/><path id="Fill-260" d="M164.679,294.478c.382,1.331,1.889,1.589,2.545,2.659,2.781,4.723,1.882,10.559-2.034,13.727-3.186,2.578-8.247,3.109-11.673.984a10.417,10.417,0,0,1-4.654-11.811c.949-3.295,4.974-7.268,9.292-7.151a15.388,15.388,0,0,1,6.524,1.592" transform="translate(-34.154 -40.609)" style="fill:#7347ff"/><path id="Fill-261" d="M228.1,156.9c-1.346.387-1.617,1.905-2.695,2.573a10.588,10.588,0,0,1-14.226-2.625c-2.287-3.169-2.562-8.269-.27-11.418,3.3-4.532,6.446-5.344,11.6-4.313,3.488.695,7.191,5.073,7.174,8.867A14.39,14.39,0,0,1,228.1,156.9" transform="translate(-34.154 -40.609)" style="fill:#7347ff"/><path id="Fill-262" d="M332.638,297.049a5.14,5.14,0,0,0,2.622-2.622,13.536,13.536,0,0,1,6.168-1.534c4.867.151,9.253,3.777,9.826,8.313.693,5.468-2.513,10.594-7.335,11.731-5.182,1.219-10.66-1.545-12.3-6.382a11.758,11.758,0,0,1,1.021-9.506" transform="translate(-34.154 -40.609)" style="fill:#7347ff"/><path id="Fill-263" d="M366.5,257.423c.638,5.083-5.034,10.163-10,10.183-5.019.02-10.372-4.939-10.275-10.437.079-4.534,4.775-10.034,10.335-9.987,4.795.042,10.588,4.981,9.945,10.241" transform="translate(-34.154 -40.609)" style="fill:#7347ff"/><path id="Fill-264" d="M143.445,267.456c-5.095.611-10.151-5.028-10.173-10-.025-5.031,4.941-10.362,10.419-10.268,4.567.08,10.027,4.793,9.978,10.321-.043,4.807-4.959,10.556-10.224,9.942" transform="translate(-34.154 -40.609)" style="fill:#7347ff"/><path id="Fill-265" d="M366.418,287.758a9.985,9.985,0,1,1-9.947-9.928,10.06,10.06,0,0,1,9.947,9.928" transform="translate(-34.154 -40.609)" style="fill:#7347ff"/><path id="Fill-266" d="M287.265,342.555a4.854,4.854,0,0,0,2.25-2.284c.819-.326,1.634-.661,2.458-.974a10.07,10.07,0,1,1-5.729,5.7c.318-.822.678-1.629,1.021-2.444" transform="translate(-34.154 -40.609)" style="fill:#7347ff"/><path id="Fill-267" d="M210.424,340.339a4.852,4.852,0,0,0,2.285,2.25c.325.819.66,1.634.973,2.458a10.07,10.07,0,1,1-5.7-5.728c.822.317,1.629.677,2.443,1.02" transform="translate(-34.154 -40.609)" style="fill:#7347ff"/><path id="Fill-268" d="M143.45,237.006A10.038,10.038,0,1,1,153.51,226.9a10,10,0,0,1-10.06,10.109" transform="translate(-34.154 -40.609)" style="fill:#7347ff"/><path id="Fill-269" d="M356.307,216.933a10.037,10.037,0,1,1-9.911,10.258,10,10,0,0,1,9.911-10.258" transform="translate(-34.154 -40.609)" style="fill:#7347ff"/><path id="Fill-270" d="M143.586,277.847a9.971,9.971,0,1,1-10.084,9.759,10.142,10.142,0,0,1,10.084-9.759" transform="translate(-34.154 -40.609)" style="fill:#7347ff"/><path id="Fill-271" d="M173.964,176.08a9.957,9.957,0,1,1,9.886-10.025,10.357,10.357,0,0,1-9.886,10.025" transform="translate(-34.154 -40.609)" style="fill:#7347ff"/><path id="Fill-272" d="M326.077,156.167a9.957,9.957,0,1,1-10.024,9.888,10.358,10.358,0,0,1,10.024-9.888" transform="translate(-34.154 -40.609)" style="fill:#7347ff"/><path id="Fill-273" d="M265.06,125.788a9.913,9.913,0,1,1-9.808,10.111c-.144-5.157,4.589-10.037,9.808-10.111" transform="translate(-34.154 -40.609)" style="fill:#7347ff"/><path id="Fill-274" d="M244.654,135.636a9.914,9.914,0,1,1-10.072-9.848,10.35,10.35,0,0,1,10.072,9.848" transform="translate(-34.154 -40.609)" style="fill:#7347ff"/><path id="Fill-275" d="M168.626,181.371a9.943,9.943,0,1,1-9.908-9.98,10.348,10.348,0,0,1,9.908,9.98" transform="translate(-34.154 -40.609)" style="fill:#7347ff"/><path id="Fill-276" d="M351.165,181.442a9.944,9.944,0,1,1-9.836-10.049,10.354,10.354,0,0,1,9.836,10.049" transform="translate(-34.154 -40.609)" style="fill:#7347ff"/><path id="Fill-277" d="M259.909,363.994a9.957,9.957,0,1,1-9.834-10.077,10.358,10.358,0,0,1,9.834,10.077" transform="translate(-34.154 -40.609)" style="fill:#7347ff"/><path id="Fill-278" d="M320.7,151.086c-.129,5.065-5.321,9.985-10.26,9.721-4.974-.265-9.66-5.214-9.536-10.069.129-5.066,5.322-9.985,10.261-9.722,4.973.266,9.659,5.215,9.535,10.07" transform="translate(-34.154 -40.609)" style="fill:#7347ff"/><path id="Fill-279" d="M189.121,160.76c-5.384-.544-9.653-3.908-9.735-9.741a9.725,9.725,0,1,1,19.449-.028c-.112,5.747-4.246,9.2-9.714,9.769" transform="translate(-34.154 -40.609)" style="fill:#7347ff"/><path id="Fill-280" d="M229.36,363.739c.116,4.9-4.567,9.757-9.6,9.965-5,.2-10.327-4.827-10-9.883.368-5.652,4.16-9.607,9.735-9.654,5.333-.045,9.17,3.7,9.868,9.572" transform="translate(-34.154 -40.609)" style="fill:#7347ff"/><path id="Fill-281" d="M280.194,354.024c4.895-.156,9.782,4.507,10.03,9.573.246,5.006-4.753,10.348-9.853,10.067-5.458-.3-9.6-3.931-9.722-9.707-.107-5.08,3.439-9.185,9.545-9.933" transform="translate(-34.154 -40.609)" style="fill:#7347ff"/><path id="Fill-282" d="M356.515,186.755c5.917.653,9.687,4.584,9.585,9.871a9.666,9.666,0,1,1-19.332-.159c.109-5.917,4.445-9.22,9.747-9.712" transform="translate(-34.154 -40.609)" style="fill:#7347ff"/><path id="Fill-283" d="M143.309,186.909a9.635,9.635,0,1,1-9.476,9.9,9.839,9.839,0,0,1,9.476-9.9" transform="translate(-34.154 -40.609)" style="fill:#7347ff"/><path id="Fill-284" d="M128.393,251.511c-5.574.042-9.391-3.63-9.463-9.1-.074-5.744,3.688-9.575,9.386-9.558,5.518.017,9.263,3.77,9.275,9.292.01,5.548-3.7,9.327-9.2,9.369" transform="translate(-34.154 -40.609)" style="fill:#7347ff"/><path id="Fill-285" d="M371.611,251.527c-5.533-.01-9.292-3.76-9.312-9.285-.02-5.711,3.817-9.481,9.57-9.406,5.483.069,9.163,3.891,9.121,9.475-.04,5.511-3.819,9.226-9.379,9.216" transform="translate(-34.154 -40.609)" style="fill:#7347ff"/><path id="Fill-286" d="M173.941,357.954a9.293,9.293,0,1,1,9.247-9.434,9.089,9.089,0,0,1-9.247,9.434" transform="translate(-34.154 -40.609)" style="fill:#7347ff"/><path id="Fill-287" d="M213.621,135.626a9.3,9.3,0,1,1-9.471-9.227,9.079,9.079,0,0,1,9.471,9.227" transform="translate(-34.154 -40.609)" style="fill:#7347ff"/><path id="Fill-288" d="M304.89,135.738a9.3,9.3,0,1,1-9.36-9.341,9.071,9.071,0,0,1,9.36,9.341" transform="translate(-34.154 -40.609)" style="fill:#7347ff"/><path id="Fill-289" d="M335.3,348.719a9.294,9.294,0,1,1-9.33-9.35,9.093,9.093,0,0,1,9.33,9.35" transform="translate(-34.154 -40.609)" style="fill:#7347ff"/><path id="Fill-290" d="M167.986,333.6a9.307,9.307,0,1,1-9.247-9.451,9.09,9.09,0,0,1,9.247,9.451" transform="translate(-34.154 -40.609)" style="fill:#7347ff"/><path id="Fill-291" d="M137.564,272.455a9.3,9.3,0,1,1-9.548-9.153,9.076,9.076,0,0,1,9.548,9.153" transform="translate(-34.154 -40.609)" style="fill:#7347ff"/><path id="Fill-292" d="M143.29,308.976a9.265,9.265,0,1,1-9.081,9.255,9.146,9.146,0,0,1,9.081-9.255" transform="translate(-34.154 -40.609)" style="fill:#7347ff"/><path id="Fill-293" d="M380.948,272.625a9.3,9.3,0,1,1-9.377-9.325,9.079,9.079,0,0,1,9.377,9.325" transform="translate(-34.154 -40.609)" style="fill:#7347ff"/><path id="Fill-294" d="M365.707,318.276a9.275,9.275,0,1,1-9.33-9.312,9.142,9.142,0,0,1,9.33,9.312" transform="translate(-34.154 -40.609)" style="fill:#7347ff"/><path id="Fill-295" d="M350.534,333.324a9.313,9.313,0,1,1-9.438-9.186,9.056,9.056,0,0,1,9.438,9.186" transform="translate(-34.154 -40.609)" style="fill:#7347ff"/><path id="Fill-296" d="M128.418,202.517a9.245,9.245,0,1,1-9.4,8.989,9.349,9.349,0,0,1,9.4-8.989" transform="translate(-34.154 -40.609)" style="fill:#7347ff"/><path id="Fill-297" d="M380.886,211.867a9.244,9.244,0,1,1-9.036-9.349,9.351,9.351,0,0,1,9.036,9.349" transform="translate(-34.154 -40.609)" style="fill:#7347ff"/><path id="Fill-298" d="M243.938,379a9.2,9.2,0,1,1-9.282-9.113A9.529,9.529,0,0,1,243.938,379" transform="translate(-34.154 -40.609)" style="fill:#7347ff"/><path id="Fill-299" d="M274.362,378.976a9.2,9.2,0,1,1-9.307-9.089,9.539,9.539,0,0,1,9.307,9.089" transform="translate(-34.154 -40.609)" style="fill:#7347ff"/><path id="Fill-300" d="M259.15,120.407a9.2,9.2,0,1,1-9.278-9.116,9.534,9.534,0,0,1,9.278,9.116" transform="translate(-34.154 -40.609)" style="fill:#7347ff"/><path id="Fill-301" d="M189.219,354.662a9.212,9.212,0,1,1-9.324,9.1,9.53,9.53,0,0,1,9.324-9.1" transform="translate(-34.154 -40.609)" style="fill:#7347ff"/><path id="Fill-302" d="M310.88,354.65a9.224,9.224,0,1,1-9.305,9.143,9.525,9.525,0,0,1,9.305-9.143" transform="translate(-34.154 -40.609)" style="fill:#7347ff"/><path id="Fill-303" d="M280.191,129.579c-6.156-1.562-7.48-2.915-8.885-9.036.608-5.359,3.58-8.431,9.044-9.121,5.331.606,8.4,3.576,9.093,9.044-.608,5.326-3.573,8.4-9.252,9.113" transform="translate(-34.154 -40.609)" style="fill:#7347ff"/><path id="Fill-304" d="M228.6,120.519c-.757,5.453-3.754,8.373-9.056,9.034-5.3-.591-8.386-3.554-9.086-9.032.6-5.319,3.556-8.4,9.034-9.1,5.321.593,8.4,3.556,9.108,9.1" transform="translate(-34.154 -40.609)" style="fill:#7347ff"/><path id="Fill-305" d="M371.606,312.13c-5.21-.636-8.592-3.492-9-9.051-.348-4.7,4.609-9.352,9.27-9.156,4.688.2,8.984,4.669,8.872,9.238-.112,4.658-4.539,9-9.14,8.969" transform="translate(-34.154 -40.609)" style="fill:#7347ff"/><path id="Fill-306" d="M119.132,302.878c1.582-6.131,5.207-9.387,9.742-8.888,4.7.514,8.587,4.726,8.472,9.181a9.526,9.526,0,0,1-8.383,8.88c-4.671.581-8.41-2.851-9.831-9.173" transform="translate(-34.154 -40.609)" style="fill:#7347ff"/><path id="Fill-307" d="M167.573,150.776c-.33,5.193-3.251,8.873-8.85,8.935-4.867.057-8.572-2.846-8.835-8.478-.216-4.671,2.5-8.9,8.569-9.118,4.952-.176,8.592,2.853,9.116,8.661" transform="translate(-34.154 -40.609)" style="fill:#7347ff"/><path id="Fill-308" d="M350.111,150.965c-.459,5.622-3.883,8.862-9.036,8.743-5.843-.131-8.644-4.1-8.7-9.039a8.74,8.74,0,0,1,8.8-8.646,8.954,8.954,0,0,1,8.932,8.942" transform="translate(-34.154 -40.609)" style="fill:#7347ff"/><path id="Fill-309" d="M365.291,166.216a8.859,8.859,0,1,1-8.575-8.954,9.113,9.113,0,0,1,8.575,8.954" transform="translate(-34.154 -40.609)" style="fill:#7347ff"/><path id="Fill-310" d="M143.62,174.984a8.862,8.862,0,1,1,8.7-9.2,9.113,9.113,0,0,1-8.7,9.2" transform="translate(-34.154 -40.609)" style="fill:#7347ff"/><path id="Fill-311" d="M295.525,370.476c4.881-.464,8.721,4.227,8.773,8.451a8.711,8.711,0,1,1-17.42.124c.01-4.6,4.147-9.024,8.647-8.575" transform="translate(-34.154 -40.609)" style="fill:#7347ff"/><path id="Fill-312" d="M204.353,370.476c4.589-.452,8.657,4.038,8.677,8.548a8.711,8.711,0,1,1-17.42-.07c.045-4.306,3.948-8.939,8.743-8.478" transform="translate(-34.154 -40.609)" style="fill:#7347ff"/><path id="Fill-313" d="M121.637,257.438A8.588,8.588,0,1,1,113.1,248.8a8.243,8.243,0,0,1,8.542,8.634" transform="translate(-34.154 -40.609)" style="fill:#7347ff"/><path id="Fill-314" d="M173.8,127.13a8.572,8.572,0,1,1-8.475,8.667,8.23,8.23,0,0,1,8.475-8.667" transform="translate(-34.154 -40.609)" style="fill:#7347ff"/><path id="Fill-315" d="M325.969,144.273a8.572,8.572,0,1,1,8.612-8.532,8.244,8.244,0,0,1-8.612,8.532" transform="translate(-34.154 -40.609)" style="fill:#7347ff"/><path id="Fill-316" d="M386.759,248.805a8.589,8.589,0,1,1-8.49,8.683,8.242,8.242,0,0,1,8.49-8.683" transform="translate(-34.154 -40.609)" style="fill:#7347ff"/><path id="Fill-317" d="M395.354,287.785a8.5,8.5,0,1,1-8.433-8.468,8.471,8.471,0,0,1,8.433,8.468" transform="translate(-34.154 -40.609)" style="fill:#7347ff"/><path id="Fill-318" d="M128.166,189.855a8.522,8.522,0,1,1,8.615-8.236,8.419,8.419,0,0,1-8.615,8.236" transform="translate(-34.154 -40.609)" style="fill:#7347ff"/><path id="Fill-319" d="M371.689,172.805a8.53,8.53,0,1,1-8.574,8.3,8.408,8.408,0,0,1,8.574-8.3" transform="translate(-34.154 -40.609)" style="fill:#7347ff"/><path id="Fill-320" d="M121.59,226.915a8.543,8.543,0,1,1-8.691-8.487,8.382,8.382,0,0,1,8.691,8.487" transform="translate(-34.154 -40.609)" style="fill:#7347ff"/><path id="Fill-321" d="M387.005,235.521a8.553,8.553,0,1,1,8.4-8.795,8.346,8.346,0,0,1-8.4,8.795" transform="translate(-34.154 -40.609)" style="fill:#7347ff"/><path id="Fill-322" d="M121.532,287.98a8.486,8.486,0,1,1-8.225-8.647,8.563,8.563,0,0,1,8.225,8.647" transform="translate(-34.154 -40.609)" style="fill:#7347ff"/><path id="Fill-323" d="M143.451,340.238a8.424,8.424,0,1,1-8.4,8.54,8.839,8.839,0,0,1,8.4-8.54" transform="translate(-34.154 -40.609)" style="fill:#7347ff"/><path id="Fill-324" d="M197.561,120.651a8.457,8.457,0,1,1-8.386-8.616,8.833,8.833,0,0,1,8.386,8.616" transform="translate(-34.154 -40.609)" style="fill:#7347ff"/><path id="Fill-325" d="M250.018,402.75a8.455,8.455,0,1,1,8.389-8.614,8.824,8.824,0,0,1-8.389,8.614" transform="translate(-34.154 -40.609)" style="fill:#7347ff"/><path id="Fill-326" d="M310.809,128.943a8.455,8.455,0,1,1,8.443-8.559,8.824,8.824,0,0,1-8.443,8.559" transform="translate(-34.154 -40.609)" style="fill:#7347ff"/><path id="Fill-327" d="M265.059,113.684a8.408,8.408,0,0,1,.209-16.814c4.4.07,8.5,4.366,8.3,8.7a8.889,8.889,0,0,1-8.513,8.113" transform="translate(-34.154 -40.609)" style="fill:#7347ff"/><path id="Fill-328" d="M364.857,348.547a8.424,8.424,0,1,1-8.632-8.309,8.84,8.84,0,0,1,8.632,8.309" transform="translate(-34.154 -40.609)" style="fill:#7347ff"/><path id="Fill-329" d="M234.729,113.684a8.407,8.407,0,1,1,8.418-8.2,8.845,8.845,0,0,1-8.418,8.2" transform="translate(-34.154 -40.609)" style="fill:#7347ff"/><path id="Fill-330" d="M158.681,372.28a8.407,8.407,0,1,1,8.408-8.214,8.843,8.843,0,0,1-8.408,8.214" transform="translate(-34.154 -40.609)" style="fill:#7347ff"/><path id="Fill-331" d="M341.369,355.466c4.413.1,8.482,4.41,8.259,8.743a8.9,8.9,0,0,1-8.555,8.071c-4.412-.1-8.482-4.41-8.256-8.744a8.894,8.894,0,0,1,8.552-8.07" transform="translate(-34.154 -40.609)" style="fill:#7347ff"/><path id="Fill-332" d="M386.86,204.885c-5.711-1.281-8.812-4.646-8.288-8.994s4.355-7.827,8.47-7.683a8.7,8.7,0,0,1,8.1,7.676c.529,4.34-2.573,7.713-8.282,9" transform="translate(-34.154 -40.609)" style="fill:#7347ff"/><path id="Fill-333" d="M280.588,402.663c-5.209-.6-7.973-3.367-8.549-8.318,1.229-5.635,4.244-8.582,8.572-8.388a8.711,8.711,0,0,1,8.058,7.725c.474,4.184-2.459,7.479-8.081,8.981" transform="translate(-34.154 -40.609)" style="fill:#7347ff"/><path id="Fill-334" d="M371.8,341.834c-6.072-1.4-7.132-2.461-8.49-8.336,1.231-5.632,4.246-8.582,8.574-8.386a8.709,8.709,0,0,1,8.058,7.723c.472,4.184-2.458,7.479-8.142,9" transform="translate(-34.154 -40.609)" style="fill:#7347ff"/><path id="Fill-335" d="M219.317,385.929c5.209.6,7.973,3.367,8.552,8.318-1.232,5.635-4.249,8.582-8.575,8.388a8.706,8.706,0,0,1-8.055-7.725c-.474-4.184,2.456-7.479,8.078-8.981" transform="translate(-34.154 -40.609)" style="fill:#7347ff"/><path id="Fill-336" d="M121.4,196.461c-.673,4.914-3.358,7.648-8.235,8.428-4.74-.519-7.636-3.167-8.455-8.225.522-4.743,3.164-7.646,8.227-8.46,4.745.517,7.638,3.166,8.463,8.257" transform="translate(-34.154 -40.609)" style="fill:#7347ff"/><path id="Fill-337" d="M128.185,325.1c4.919.683,7.648,3.372,8.418,8.237-.529,4.753-3.174,7.651-8.245,8.45-4.742-.521-7.628-3.178-8.437-8.219.521-4.765,3.181-7.648,8.264-8.468" transform="translate(-34.154 -40.609)" style="fill:#7347ff"/><path id="Fill-338" d="M182.007,379.09a8.112,8.112,0,1,1-7.916-8.118,8.366,8.366,0,0,1,7.916,8.118" transform="translate(-34.154 -40.609)" style="fill:#7347ff"/><path id="Fill-339" d="M325.853,370.939a8.147,8.147,0,1,1-7.976,8.49,8.436,8.436,0,0,1,7.976-8.49" transform="translate(-34.154 -40.609)" style="fill:#7347ff"/><path id="Fill-340" d="M401.734,280.373a7.776,7.776,0,1,1,8.1-7.246,7.541,7.541,0,0,1-8.1,7.246" transform="translate(-34.154 -40.609)" style="fill:#7347ff"/><path id="Fill-341" d="M303.381,105.241a7.794,7.794,0,1,1-7.924-7.758,7.491,7.491,0,0,1,7.924,7.758" transform="translate(-34.154 -40.609)" style="fill:#7347ff"/><path id="Fill-342" d="M105.632,242.038a7.794,7.794,0,1,1-8.034-7.651,7.486,7.486,0,0,1,8.034,7.651" transform="translate(-34.154 -40.609)" style="fill:#7347ff"/><path id="Fill-343" d="M409.863,242.516c-.129,4.509-3.573,7.63-8.225,7.457-4.487-.172-7.573-3.658-7.357-8.317a7.8,7.8,0,0,1,15.582.86" transform="translate(-34.154 -40.609)" style="fill:#7347ff"/><path id="Fill-344" d="M204.3,97.483a7.794,7.794,0,1,1-7.772,7.912,7.49,7.49,0,0,1,7.772-7.912" transform="translate(-34.154 -40.609)" style="fill:#7347ff"/><path id="Fill-345" d="M105.605,272.6a7.769,7.769,0,1,1-7.581-7.765,7.519,7.519,0,0,1,7.581,7.765" transform="translate(-34.154 -40.609)" style="fill:#7347ff"/><path id="Fill-346" d="M113.1,310.458a7.782,7.782,0,1,1-7.827,7.827,7.5,7.5,0,0,1,7.827-7.827" transform="translate(-34.154 -40.609)" style="fill:#7347ff"/><path id="Fill-347" d="M386.994,326.032a7.794,7.794,0,1,1,7.656-8.025,7.483,7.483,0,0,1-7.656,8.025" transform="translate(-34.154 -40.609)" style="fill:#7347ff"/><path id="Fill-348" d="M196.821,394.4a7.715,7.715,0,1,1-7.611-7.819,7.93,7.93,0,0,1,7.611,7.819" transform="translate(-34.154 -40.609)" style="fill:#7347ff"/><path id="Fill-349" d="M310.837,402.01a7.714,7.714,0,1,1,7.676-7.752,7.92,7.92,0,0,1-7.676,7.752" transform="translate(-34.154 -40.609)" style="fill:#7347ff"/><path id="Fill-350" d="M97.931,219.456a7.7,7.7,0,1,1,7.606-7.887,7.934,7.934,0,0,1-7.606,7.887" transform="translate(-34.154 -40.609)" style="fill:#7347ff"/><path id="Fill-351" d="M151.17,135.643A7.7,7.7,0,1,1,143.318,128a7.936,7.936,0,0,1,7.852,7.641" transform="translate(-34.154 -40.609)" style="fill:#7347ff"/><path id="Fill-352" d="M356.341,127.986a7.715,7.715,0,1,1-7.621,7.807,7.93,7.93,0,0,1,7.621-7.807" transform="translate(-34.154 -40.609)" style="fill:#7347ff"/><path id="Fill-353" d="M371.692,158.61a7.7,7.7,0,1,1,7.65-7.839,7.937,7.937,0,0,1-7.65,7.839" transform="translate(-34.154 -40.609)" style="fill:#7347ff"/><path id="Fill-354" d="M401.911,219.456a7.7,7.7,0,1,1,7.856-7.636,7.959,7.959,0,0,1-7.856,7.636" transform="translate(-34.154 -40.609)" style="fill:#7347ff"/><path id="Fill-355" d="M158.631,128.135a8.156,8.156,0,0,1-7.594-7.6c-.027-3.983,3.934-7.845,7.889-7.691a7.649,7.649,0,0,1-.295,15.294" transform="translate(-34.154 -40.609)" style="fill:#7347ff"/><path id="Fill-356" d="M348.886,120.656c-.1,3.986-4.1,7.715-8.02,7.494a8.172,8.172,0,0,1-7.308-7.829c.1-3.986,4.094-7.713,8.02-7.494a8.176,8.176,0,0,1,7.308,7.829" transform="translate(-34.154 -40.609)" style="fill:#7347ff"/><path id="Fill-357" d="M135.942,150.909a7.682,7.682,0,1,1-7.494-7.678,8.118,8.118,0,0,1,7.494,7.678" transform="translate(-34.154 -40.609)" style="fill:#7347ff"/><path id="Fill-358" d="M265.042,401.884c5.393,1.254,6.493,2.354,7.735,7.695-.586,4.422-3.117,6.955-7.614,7.551-4.494-.6-7.027-3.126-7.623-7.631.586-4.5,3.149-7,7.5-7.615" transform="translate(-34.154 -40.609)" style="fill:#7347ff"/><path id="Fill-359" d="M234.888,401.912a8.046,8.046,0,0,1,7.45,7.742c-.112,3.911-3.9,7.562-7.743,7.45-3.913-.112-7.559-3.9-7.449-7.743a8.04,8.04,0,0,1,7.742-7.449" transform="translate(-34.154 -40.609)" style="fill:#7347ff"/><path id="Fill-360" d="M250.076,82.442c5.215,1.443,6.205,2.463,7.469,7.623-.546,4.406-3.034,6.966-7.469,7.587-4.986-1.118-7.641-3.718-7.7-7.507-.06-3.77,2.56-6.442,7.7-7.7" transform="translate(-34.154 -40.609)" style="fill:#7347ff"/><path id="Fill-361" d="M97.838,295.456q6.705.882,7.569,7.564c-.577,4.487-3.119,6.978-7.527,7.583-4.512-.593-7.027-3.111-7.613-7.576.588-4.472,3.106-6.985,7.571-7.571" transform="translate(-34.154 -40.609)" style="fill:#7347ff"/><path id="Fill-362" d="M402.206,295.438c5.16,1.41,6.154,2.426,7.435,7.584-.541,4.367-3,6.945-7.551,7.573-4.4-.524-6.946-3.009-7.6-7.534.548-4.4,3-6.975,7.717-7.623" transform="translate(-34.154 -40.609)" style="fill:#7347ff"/><path id="Fill-363" d="M394.461,166c-.584,4.522-3.037,6.993-7.459,7.723-4.339-.435-6.978-2.843-7.748-7.445.439-4.348,2.843-6.992,7.459-7.757,4.334.439,6.981,2.84,7.748,7.479" transform="translate(-34.154 -40.609)" style="fill:#7347ff"/><path id="Fill-364" d="M113.011,158.544c4.487.633,6.938,3.091,7.611,7.5-.48,4.331-2.9,6.948-7.492,7.656-4.328-.479-6.946-2.9-7.653-7.494.481-4.326,2.892-6.946,7.534-7.658" transform="translate(-34.154 -40.609)" style="fill:#7347ff"/><path id="Fill-365" d="M280.478,82.73a7.337,7.337,0,1,1-7.437,7.139,7.648,7.648,0,0,1,7.437-7.139" transform="translate(-34.154 -40.609)" style="fill:#7347ff"/><path id="Fill-366" d="M226.865,89.941A7.335,7.335,0,1,1,219.5,82.73a7.662,7.662,0,0,1,7.365,7.211" transform="translate(-34.154 -40.609)" style="fill:#7347ff"/><path id="Fill-367" d="M180.972,105.225c.022,4.278-2.767,7.109-7.023,7.129-4.281.02-7.109-2.766-7.131-7.022-.02-4.282,2.766-7.11,7.025-7.132a6.666,6.666,0,0,1,7.129,7.025" transform="translate(-34.154 -40.609)" style="fill:#7347ff"/><path id="Fill-368" d="M333.087,105.092c.074,4.3-2.664,7.189-6.891,7.261-4.3.075-7.189-2.664-7.261-6.891-.074-4.305,2.66-7.188,6.889-7.26,4.3-.075,7.191,2.664,7.263,6.89" transform="translate(-34.154 -40.609)" style="fill:#7347ff"/><path id="Fill-369" d="M128.125,370.878a7.009,7.009,0,1,1,7.139-6.774,6.864,6.864,0,0,1-7.139,6.774" transform="translate(-34.154 -40.609)" style="fill:#7347ff"/><path id="Fill-370" d="M378.65,363.927a7.008,7.008,0,1,1-6.857-7.059,6.867,6.867,0,0,1,6.857,7.059" transform="translate(-34.154 -40.609)" style="fill:#7347ff"/><path id="Fill-371" d="M302.605,409.69a7.02,7.02,0,1,1-6.648-7.2,6.848,6.848,0,0,1,6.648,7.2" transform="translate(-34.154 -40.609)" style="fill:#7347ff"/><path id="Fill-372" d="M211.335,409.4a7.018,7.018,0,1,1-6.938-6.908,6.86,6.86,0,0,1,6.938,6.908" transform="translate(-34.154 -40.609)" style="fill:#7347ff"/><path id="Fill-373" d="M113.049,355.605a6.944,6.944,0,1,1,6.943-7.038,7.151,7.151,0,0,1-6.943,7.038" transform="translate(-34.154 -40.609)" style="fill:#7347ff"/><path id="Fill-374" d="M363.423,379.181a6.991,6.991,0,1,1-6.893-7.087,7.109,7.109,0,0,1,6.893,7.087" transform="translate(-34.154 -40.609)" style="fill:#7347ff"/><path id="Fill-375" d="M97.649,174.346a6.991,6.991,0,1,1-6.8,7.178,7.119,7.119,0,0,1,6.8-7.178" transform="translate(-34.154 -40.609)" style="fill:#7347ff"/><path id="Fill-376" d="M348.128,394.158a6.907,6.907,0,1,1-6.854-6.77,7.159,7.159,0,0,1,6.854,6.77" transform="translate(-34.154 -40.609)" style="fill:#7347ff"/><path id="Fill-377" d="M158.694,401.2a6.906,6.906,0,1,1,6.9-6.727,7.16,7.16,0,0,1-6.9,6.727" transform="translate(-34.154 -40.609)" style="fill:#7347ff"/><path id="Fill-378" d="M409.058,181.205a6.992,6.992,0,1,1-7.12-6.858,7.111,7.111,0,0,1,7.12,6.858" transform="translate(-34.154 -40.609)" style="fill:#7347ff"/><path id="Fill-379" d="M417.6,250.4a7,7,0,1,1-7.31,6.67,7.134,7.134,0,0,1,7.31-6.67" transform="translate(-34.154 -40.609)" style="fill:#7347ff"/><path id="Fill-380" d="M89.6,257.333a6.975,6.975,0,1,1-7.129-6.915,7.11,7.11,0,0,1,7.129,6.915" transform="translate(-34.154 -40.609)" style="fill:#7347ff"/><path id="Fill-381" d="M143.375,386.074a6.99,6.99,0,1,1,7.087-6.893,7.108,7.108,0,0,1-7.087,6.893" transform="translate(-34.154 -40.609)" style="fill:#7347ff"/><path id="Fill-382" d="M82.53,233.913a6.944,6.944,0,1,1,7.04-6.943,7.159,7.159,0,0,1-7.04,6.943" transform="translate(-34.154 -40.609)" style="fill:#7347ff"/><path id="Fill-383" d="M424.223,227.111a6.948,6.948,0,1,1-6.9-7.085,7.167,7.167,0,0,1,6.9,7.085" transform="translate(-34.154 -40.609)" style="fill:#7347ff"/><path id="Fill-384" d="M386.691,355.621a6.964,6.964,0,1,1,7.125-6.888,7.148,7.148,0,0,1-7.125,6.888" transform="translate(-34.154 -40.609)" style="fill:#7347ff"/><path id="Fill-385" d="M189.105,83.22q6.135.723,6.846,6.846-.723,6.135-6.839,6.844c-4.1-.474-6.362-2.769-6.853-6.814.484-4.122,2.764-6.4,6.846-6.876" transform="translate(-34.154 -40.609)" style="fill:#7347ff"/><path id="Fill-386" d="M310.705,96.922c-4.085-.608-6.265-2.855-6.75-6.856.435-3.988,2.657-6.322,6.827-6.846,4,.439,6.342,2.652,6.861,6.846-.44,3.986-2.652,6.325-6.938,6.856" transform="translate(-34.154 -40.609)" style="fill:#7347ff"/><path id="Fill-387" d="M417.333,280.958a6.86,6.86,0,1,1-6.911,6.71,7.1,7.1,0,0,1,6.911-6.71" transform="translate(-34.154 -40.609)" style="fill:#7347ff"/><path id="Fill-388" d="M89.485,287.851c-.576,4.085-2.8,6.29-6.812,6.812-3.97-.408-6.334-2.6-6.895-6.8.409-3.975,2.6-6.339,6.791-6.9,3.986.4,6.342,2.6,6.916,6.881" transform="translate(-34.154 -40.609)" style="fill:#7347ff"/><path id="Fill-389" d="M408.869,333.451c-.556,3.866-2.727,6.126-6.712,6.8-3.861-.442-6.218-2.639-6.893-6.729.5-3.931,2.731-6.253,6.781-6.873,3.973.551,6.258,2.82,6.824,6.8" transform="translate(-34.154 -40.609)" style="fill:#7347ff"/><path id="Fill-390" d="M256.544,424.755a6.593,6.593,0,1,1-6.461-6.627,6.8,6.8,0,0,1,6.461,6.627" transform="translate(-34.154 -40.609)" style="fill:#7347ff"/><path id="Fill-391" d="M97.935,340.083a6.635,6.635,0,1,1,6.533-6.635,6.9,6.9,0,0,1-6.533,6.635" transform="translate(-34.154 -40.609)" style="fill:#7347ff"/><path id="Fill-392" d="M280.68,418.464a5.976,5.976,0,0,1,5.952,6.463c-.087,3.742-2.893,6.253-6.749,6.042a6.266,6.266,0,0,1,.8-12.5" transform="translate(-34.154 -40.609)" style="fill:#7347ff"/><path id="Fill-393" d="M417.125,190.248a6.3,6.3,0,1,1-6.144,6.263,6,6,0,0,1,6.144-6.263" transform="translate(-34.154 -40.609)" style="fill:#7347ff"/><path id="Fill-394" d="M82.627,202.821a6.274,6.274,0,1,1,6.273-6.089,5.965,5.965,0,0,1-6.273,6.089" transform="translate(-34.154 -40.609)" style="fill:#7347ff"/><path id="Fill-395" d="M241.015,74.841a6.274,6.274,0,1,1-6.1-6.26,5.976,5.976,0,0,1,6.1,6.26" transform="translate(-34.154 -40.609)" style="fill:#7347ff"/><path id="Fill-396" d="M271.438,74.927a6.274,6.274,0,1,1-6.012-6.347,5.939,5.939,0,0,1,6.012,6.347" transform="translate(-34.154 -40.609)" style="fill:#7347ff"/><path id="Fill-397" d="M225.787,425.051a6.262,6.262,0,0,1-12.513-.475c.057-3.777,2.808-6.292,6.682-6.108a6,6,0,0,1,5.831,6.583" transform="translate(-34.154 -40.609)" style="fill:#7347ff"/><path id="Fill-398" d="M332.284,409.579a6.274,6.274,0,1,1-6.014-6.347,5.941,5.941,0,0,1,6.014,6.347" transform="translate(-34.154 -40.609)" style="fill:#7347ff"/><path id="Fill-399" d="M173.563,415.783a5.977,5.977,0,0,1-5.943-6.419c.058-3.775,2.744-6.268,6.608-6.131,3.715.131,6.151,2.925,5.932,6.8-.2,3.519-2.907,5.883-6.6,5.754" transform="translate(-34.154 -40.609)" style="fill:#7347ff"/><path id="Fill-400" d="M411.108,317.922a6.179,6.179,0,1,1,5.666,6.471,6.261,6.261,0,0,1-5.666-6.471" transform="translate(-34.154 -40.609)" style="fill:#7347ff"/><path id="Fill-401" d="M393.08,135.512a6.227,6.227,0,1,1-6.412-6.036,6.2,6.2,0,0,1,6.412,6.036" transform="translate(-34.154 -40.609)" style="fill:#7347ff"/><path id="Fill-402" d="M119.255,135.855a6.211,6.211,0,1,1-6.146-6.362,6.216,6.216,0,0,1,6.146,6.362" transform="translate(-34.154 -40.609)" style="fill:#7347ff"/><path id="Fill-403" d="M143.315,111.448a6.173,6.173,0,1,1,6.324-5.823,6.248,6.248,0,0,1-6.324,5.823" transform="translate(-34.154 -40.609)" style="fill:#7347ff"/><path id="Fill-404" d="M134.484,120.406a6.225,6.225,0,1,1-6.307-6.141,6.187,6.187,0,0,1,6.307,6.141" transform="translate(-34.154 -40.609)" style="fill:#7347ff"/><path id="Fill-405" d="M356.53,111.465a6.189,6.189,0,1,1,6.091-6.379,6.223,6.223,0,0,1-6.091,6.379" transform="translate(-34.154 -40.609)" style="fill:#7347ff"/><path id="Fill-406" d="M377.882,120.52a6.238,6.238,0,1,1-6.2-6.27,6.159,6.159,0,0,1,6.2,6.27" transform="translate(-34.154 -40.609)" style="fill:#7347ff"/><path id="Fill-407" d="M82.937,312.089a6.6,6.6,0,0,1,5.838,6.365,6.154,6.154,0,1,1-12.29-.621,6.6,6.6,0,0,1,6.452-5.744" transform="translate(-34.154 -40.609)" style="fill:#7347ff"/><path id="Fill-408" d="M301.727,74.767a6.7,6.7,0,0,1-5.972,6.211c-3.434-.33-5.587-2.24-6.292-5.955.33-3.434,2.239-5.587,5.954-6.292,3.437.328,5.587,2.24,6.31,6.036" transform="translate(-34.154 -40.609)" style="fill:#7347ff"/><path id="Fill-409" d="M204.445,80.953c-2.98.087-6.136-2.94-6.226-5.972-.086-2.98,2.941-6.136,5.973-6.226,2.982-.087,6.136,2.94,6.225,5.972.087,2.983-2.94,6.136-5.972,6.226" transform="translate(-34.154 -40.609)" style="fill:#7347ff"/><path id="Fill-410" d="M402.128,157.053a6.7,6.7,0,0,1-6.188-6.017c.368-3.441,2.3-5.577,6-6.25,3.452.358,5.577,2.3,6.26,5.977-.365,3.469-2.3,5.6-6.069,6.29" transform="translate(-34.154 -40.609)" style="fill:#7347ff"/><path id="Fill-411" d="M438.632,242.118c-.658,3.571-2.634,5.547-6.088,6.183a6.789,6.789,0,0,1-6.166-6.076c.506-3.395,2.451-5.406,5.887-6.151,3.5.367,5.58,2.374,6.367,6.044" transform="translate(-34.154 -40.609)" style="fill:#7347ff"/><path id="Fill-412" d="M91.705,150.871c.7-3.536,2.691-5.5,6.1-6.071a6.822,6.822,0,0,1,6.156,5.964c-1.227,4.274-1.81,4.88-5.88,6.221-4.241-.974-5.009-1.691-6.379-6.114" transform="translate(-34.154 -40.609)" style="fill:#7347ff"/><path id="Fill-413" d="M67.309,236.076c3.558.6,5.547,2.58,6.185,6.01a6.787,6.787,0,0,1-5.972,6.2c-3.561-.6-5.55-2.58-6.188-6.009a6.79,6.79,0,0,1,5.975-6.2" transform="translate(-34.154 -40.609)" style="fill:#7347ff"/><path id="Fill-414" d="M438.535,272.543c-1.244,4.212-1.822,4.8-6.012,6.1a6.689,6.689,0,0,1-6.086-6.029,6.8,6.8,0,0,1,5.987-6.064,6.689,6.689,0,0,1,6.111,5.989" transform="translate(-34.154 -40.609)" style="fill:#7347ff"/><path id="Fill-415" d="M67.521,266.752a5.852,5.852,0,1,1-5.96,5.746,6.073,6.073,0,0,1,5.96-5.746" transform="translate(-34.154 -40.609)" style="fill:#7347ff"/><path id="Fill-416" d="M158.771,95.875a5.81,5.81,0,1,1,5.723-5.9,6,6,0,0,1-5.723,5.9" transform="translate(-34.154 -40.609)" style="fill:#7347ff"/><path id="Fill-417" d="M347.074,90.154a5.853,5.853,0,1,1-5.764-5.94,6.07,6.07,0,0,1,5.764,5.94" transform="translate(-34.154 -40.609)" style="fill:#7347ff"/><path id="Fill-418" d="M316.65,424.618a5.852,5.852,0,1,1-5.952-5.751,6.073,6.073,0,0,1,5.952,5.751" transform="translate(-34.154 -40.609)" style="fill:#7347ff"/><path id="Fill-419" d="M194.913,425a5.814,5.814,0,1,1-5.525-6.089A6.01,6.01,0,0,1,194.913,425" transform="translate(-34.154 -40.609)" style="fill:#7347ff"/><path id="Fill-420" d="M88.1,166.2a5.474,5.474,0,1,1-5.394-5.552A5.3,5.3,0,0,1,88.1,166.2" transform="translate(-34.154 -40.609)" style="fill:#7347ff"/><path id="Fill-421" d="M417.462,171.613a5.493,5.493,0,1,1,5.307-5.672,5.285,5.285,0,0,1-5.307,5.672" transform="translate(-34.154 -40.609)" style="fill:#7347ff"/><path id="Fill-422" d="M377.1,394.413a5.458,5.458,0,1,1-5.433-5.572,5.339,5.339,0,0,1,5.433,5.572" transform="translate(-34.154 -40.609)" style="fill:#7347ff"/><path id="Fill-423" d="M133.717,394.332a5.458,5.458,0,1,1-5.516-5.492,5.324,5.324,0,0,1,5.516,5.492" transform="translate(-34.154 -40.609)" style="fill:#7347ff"/><path id="Fill-424" d="M67.6,206.269a5.492,5.492,0,1,1-5.671,5.306,5.284,5.284,0,0,1,5.671-5.306" transform="translate(-34.154 -40.609)" style="fill:#7347ff"/><path id="Fill-425" d="M438,211.8a5.514,5.514,0,1,1-5.378-5.552A5.258,5.258,0,0,1,438,211.8" transform="translate(-34.154 -40.609)" style="fill:#7347ff"/><path id="Fill-426" d="M386.8,384.559a5.474,5.474,0,1,1,5.53-5.418,5.3,5.3,0,0,1-5.53,5.418" transform="translate(-34.154 -40.609)" style="fill:#7347ff"/><path id="Fill-427" d="M118.505,378.959a5.457,5.457,0,1,1-5.676-5.331,5.323,5.323,0,0,1,5.676,5.331" transform="translate(-34.154 -40.609)" style="fill:#7347ff"/><path id="Fill-428" d="M402.188,358.458a5.42,5.42,0,1,1-5.535,5.2,5.667,5.667,0,0,1,5.535-5.2" transform="translate(-34.154 -40.609)" style="fill:#7347ff"/><path id="Fill-429" d="M437.906,303a5.417,5.417,0,1,1-5.344-5.391A5.674,5.674,0,0,1,437.906,303" transform="translate(-34.154 -40.609)" style="fill:#7347ff"/><path id="Fill-430" d="M103.253,363.767a5.417,5.417,0,1,1-5.426-5.31,5.668,5.668,0,0,1,5.426,5.31" transform="translate(-34.154 -40.609)" style="fill:#7347ff"/><path id="Fill-431" d="M270.532,439.792a5.369,5.369,0,1,1-5.5-5.23,5.781,5.781,0,0,1,5.5,5.23" transform="translate(-34.154 -40.609)" style="fill:#7347ff"/><path id="Fill-432" d="M244.55,59.728c.559-3.226,2.294-4.954,5.339-5.458a5.8,5.8,0,0,1,5.435,5.334,5.885,5.885,0,0,1-5.167,5.408c-3.107-.268-4.934-2.039-5.607-5.284" transform="translate(-34.154 -40.609)" style="fill:#7347ff"/><path id="Fill-433" d="M67.375,297.659a5.369,5.369,0,1,1,.079,10.737,5.369,5.369,0,0,1-.079-10.737" transform="translate(-34.154 -40.609)" style="fill:#7347ff"/><path id="Fill-434" d="M240.109,439.847a5.368,5.368,0,1,1-5.453-5.284,5.771,5.771,0,0,1,5.453,5.284" transform="translate(-34.154 -40.609)" style="fill:#7347ff"/><path id="Fill-435" d="M143.45,404.147c3.169.571,4.88,2.3,5.361,5.329a5.774,5.774,0,0,1-5.321,5.368,5.859,5.859,0,0,1-5.354-5.17c.308-3.061,2.036-4.906,5.314-5.527" transform="translate(-34.154 -40.609)" style="fill:#7347ff"/><path id="Fill-436" d="M356.392,404.147c3.158.549,4.877,2.277,5.381,5.3a5.781,5.781,0,0,1-5.3,5.4A5.855,5.855,0,0,1,351.1,409.7c.283-3.061,2.007-4.906,5.292-5.552" transform="translate(-34.154 -40.609)" style="fill:#7347ff"/><path id="Fill-437" d="M320.649,74.876c.571-3.168,2.307-4.879,5.329-5.361a5.776,5.776,0,0,1,5.369,5.322,5.858,5.858,0,0,1-5.17,5.353c-3.062-.307-4.907-2.036-5.528-5.314" transform="translate(-34.154 -40.609)" style="fill:#7347ff"/><path id="Fill-438" d="M173.854,69.516a5.859,5.859,0,0,1,5.376,5.153c-.268,3.052-2.016,4.877-5.143,5.53-3.133-.345-4.961-2.091-5.532-5.252a5.783,5.783,0,0,1,5.3-5.431" transform="translate(-34.154 -40.609)" style="fill:#7347ff"/><path id="Fill-439" d="M417.364,353.724a5.064,5.064,0,1,1,4.979-5.147,5.1,5.1,0,0,1-4.979,5.147" transform="translate(-34.154 -40.609)" style="fill:#7347ff"/><path id="Fill-440" d="M224.589,60.121a5.082,5.082,0,1,1-4.581-5.537,5.076,5.076,0,0,1,4.581,5.537" transform="translate(-34.154 -40.609)" style="fill:#7347ff"/><path id="Fill-441" d="M285.49,59.545a5.115,5.115,0,1,1-5.212-5.016,5.208,5.208,0,0,1,5.212,5.016" transform="translate(-34.154 -40.609)" style="fill:#7347ff"/><path id="Fill-442" d="M82.551,343.879a4.783,4.783,0,1,1-4.708,4.763,4.49,4.49,0,0,1,4.708-4.763" transform="translate(-34.154 -40.609)" style="fill:#7347ff"/><path id="Fill-443" d="M300.339,439.862a4.752,4.752,0,1,1-4.82-4.684,4.619,4.619,0,0,1,4.82,4.684" transform="translate(-34.154 -40.609)" style="fill:#7347ff"/><path id="Fill-444" d="M204.364,435.179a4.752,4.752,0,1,1-4.8,4.705,4.618,4.618,0,0,1,4.8-4.705" transform="translate(-34.154 -40.609)" style="fill:#7347ff"/><path id="Fill-445" d="M341.049,429.406a4.69,4.69,0,1,1,4.855-4.326,4.7,4.7,0,0,1-4.855,4.326" transform="translate(-34.154 -40.609)" style="fill:#7347ff"/><path id="Fill-446" d="M158.7,429.406a4.687,4.687,0,1,1,4.673-4.512,4.685,4.685,0,0,1-4.673,4.512" transform="translate(-34.154 -40.609)" style="fill:#7347ff"/><path id="Fill-447" d="M72.141,181.242a4.728,4.728,0,1,1-4.914-4.633,4.624,4.624,0,0,1,4.914,4.633" transform="translate(-34.154 -40.609)" style="fill:#7347ff"/><path id="Fill-448" d="M437.243,181.406a4.752,4.752,0,1,1-4.681-4.825,4.621,4.621,0,0,1,4.681,4.825" transform="translate(-34.154 -40.609)" style="fill:#7347ff"/><path id="Fill-449" d="M52.224,231.57c-3.407-1.229-3.407-1.229-4.574-4.512a4.859,4.859,0,0,1,4.425-4.661,4.936,4.936,0,0,1,4.68,4.361c-.173,2.649-1.639,4.243-4.531,4.812" transform="translate(-34.154 -40.609)" style="fill:#7347ff"/><path id="Fill-450" d="M447.7,222.364a4.97,4.97,0,0,1,4.609,4.442q-.346,4.02-4.485,4.77a4.607,4.607,0,1,1-.124-9.212" transform="translate(-34.154 -40.609)" style="fill:#7347ff"/><path id="Fill-451" d="M402.121,115.906c2.749.527,4.179,2.029,4.5,4.584a4.9,4.9,0,0,1-4.382,4.557c-2.65-.2-4.229-1.684-4.743-4.383.273-2.731,1.765-4.3,4.621-4.758" transform="translate(-34.154 -40.609)" style="fill:#7347ff"/><path id="Fill-452" d="M391.415,105.251c-1.1,3.33-1.1,3.33-4.371,4.589a4.572,4.572,0,1,1,4.371-4.589" transform="translate(-34.154 -40.609)" style="fill:#7347ff"/><path id="Fill-453" d="M117.624,105.176a4.954,4.954,0,0,1-4.428,4.661,4.563,4.563,0,1,1,4.428-4.661" transform="translate(-34.154 -40.609)" style="fill:#7347ff"/><path id="Fill-454" d="M47.593,257.309A4.611,4.611,0,1,1,52.12,262a4.872,4.872,0,0,1-4.527-4.693" transform="translate(-34.154 -40.609)" style="fill:#7347ff"/><path id="Fill-455" d="M447.74,252.753a4.643,4.643,0,1,1-.265,9.28,4.643,4.643,0,0,1,.265-9.28" transform="translate(-34.154 -40.609)" style="fill:#7347ff"/><path id="Fill-456" d="M432.52,329.022a4.99,4.99,0,0,1,4.373,4.412,4.4,4.4,0,0,1-8.808.055,4.908,4.908,0,0,1,4.435-4.467" transform="translate(-34.154 -40.609)" style="fill:#7347ff"/><path id="Fill-457" d="M67.452,337.794a4.736,4.736,0,0,1-4.391-4.266,4.808,4.808,0,0,1,4.217-4.42,4.344,4.344,0,1,1,.174,8.686" transform="translate(-34.154 -40.609)" style="fill:#7347ff"/><path id="Fill-458" d="M97.981,116.049c3.1,1.3,3.1,1.3,4.263,4.383a4.407,4.407,0,1,1-8.813.1c.343-2.49,1.773-3.985,4.55-4.487" transform="translate(-34.154 -40.609)" style="fill:#7347ff"/><path id="Fill-459" d="M371.671,94.412a4.7,4.7,0,0,1-4.368-4.338,4.776,4.776,0,0,1,4.2-4.349,4.345,4.345,0,1,1,.166,8.687" transform="translate(-34.154 -40.609)" style="fill:#7347ff"/><path id="Fill-460" d="M310.848,64.076c-3.171-1.167-3.171-1.167-4.455-4.191a4.863,4.863,0,0,1,4.217-4.644c2.468.219,4,1.617,4.591,4.214-.216,2.471-1.616,4-4.353,4.621" transform="translate(-34.154 -40.609)" style="fill:#7347ff"/><path id="Fill-461" d="M193.528,59.7a4.976,4.976,0,0,1-4.41,4.341,4.847,4.847,0,0,1-4.418-4.373,4.414,4.414,0,1,1,8.828.032" transform="translate(-34.154 -40.609)" style="fill:#7347ff"/><path id="Fill-462" d="M452.077,287.676a4.865,4.865,0,0,1-4.316,4.482,4.343,4.343,0,1,1-.062-8.686c3.109,1.1,3.109,1.1,4.378,4.2" transform="translate(-34.154 -40.609)" style="fill:#7347ff"/><path id="Fill-463" d="M421.241,135.747a3.962,3.962,0,1,1-4.011-4.008,3.749,3.749,0,0,1,4.011,4.008" transform="translate(-34.154 -40.609)" style="fill:#7347ff"/><path id="Fill-464" d="M86.588,135.884a3.969,3.969,0,1,1-7.917-.556,3.721,3.721,0,0,1,4.043-3.589,3.759,3.759,0,0,1,3.874,4.145" transform="translate(-34.154 -40.609)" style="fill:#7347ff"/><path id="Fill-465" d="M132.294,89.98a4.035,4.035,0,1,1-4.12-3.949,3.746,3.746,0,0,1,4.12,3.949" transform="translate(-34.154 -40.609)" style="fill:#7347ff"/><path id="Fill-466" d="M56.237,287.875a3.74,3.74,0,0,1-4.093,3.975,4.035,4.035,0,0,1,.12-8.07,3.745,3.745,0,0,1,3.973,4.1" transform="translate(-34.154 -40.609)" style="fill:#7347ff"/><path id="Fill-467" d="M177.785,439.93a3.891,3.891,0,1,1-3.891-3.889,4.047,4.047,0,0,1,3.891,3.889" transform="translate(-34.154 -40.609)" style="fill:#7347ff"/><path id="Fill-468" d="M329.9,440.013a3.892,3.892,0,1,1-3.807-3.973,4.052,4.052,0,0,1,3.807,3.973" transform="translate(-34.154 -40.609)" style="fill:#7347ff"/><path id="Fill-469" d="M253.807,455a3.856,3.856,0,1,1-4-3.712,4.056,4.056,0,0,1,4,3.712" transform="translate(-34.154 -40.609)" style="fill:#7347ff"/><path id="Fill-470" d="M56.058,196.628a3.856,3.856,0,1,1-3.774-3.936,4.046,4.046,0,0,1,3.774,3.936" transform="translate(-34.154 -40.609)" style="fill:#7347ff"/><path id="Fill-471" d="M451.557,196.546a3.855,3.855,0,1,1-3.854-3.854,4.045,4.045,0,0,1,3.854,3.854" transform="translate(-34.154 -40.609)" style="fill:#7347ff"/><path id="Fill-472" d="M356.433,78.709a3.855,3.855,0,1,1,3.854-3.854,4.039,4.039,0,0,1-3.854,3.854" transform="translate(-34.154 -40.609)" style="fill:#7347ff"/><path id="Fill-473" d="M238.564,44.69a4.815,4.815,0,0,1-3.6,3.555,4.355,4.355,0,0,1-4.045-3.652,4.461,4.461,0,0,1,3.621-3.978,4.258,4.258,0,0,1,4.02,4.075" transform="translate(-34.154 -40.609)" style="fill:#7347ff"/><path id="Fill-474" d="M268.982,44.319c-1.09,2.709-1.09,2.709-3.747,3.933a4.373,4.373,0,0,1-3.894-3.73,4.468,4.468,0,0,1,3.738-3.913,4.365,4.365,0,0,1,3.9,3.71" transform="translate(-34.154 -40.609)" style="fill:#7347ff"/><path id="Fill-475" d="M143.236,70.959a4.564,4.564,0,0,1,4.1,3.767,3.866,3.866,0,1,1-7.727.251,4.526,4.526,0,0,1,3.628-4.018" transform="translate(-34.154 -40.609)" style="fill:#7347ff"/><path id="Fill-476" d="M280.523,458.786a4.02,4.02,0,0,1-3.757-3.591,3.611,3.611,0,1,1,7.221-.037c-1,2.483-1,2.483-3.464,3.628" transform="translate(-34.154 -40.609)" style="fill:#7347ff"/><path id="Fill-477" d="M63.875,150.93a3.775,3.775,0,0,1,3.437-3.558,3.7,3.7,0,0,1,3.641,3.516,3.773,3.773,0,0,1-3.435,3.563,3.705,3.705,0,0,1-3.643-3.521" transform="translate(-34.154 -40.609)" style="fill:#7347ff"/><path id="Fill-478" d="M436.03,150.873a3.774,3.774,0,0,1-3.4,3.578,3.709,3.709,0,0,1-3.675-3.5,3.777,3.777,0,0,1,3.4-3.578,3.712,3.712,0,0,1,3.675,3.5" transform="translate(-34.154 -40.609)" style="fill:#7347ff"/><path id="Fill-479" d="M219.6,451.5c2.5,1.1,2.5,1.1,3.546,3.561a3.857,3.857,0,0,1-3.571,3.687c-2.5-.963-2.5-.963-3.653-3.337.136-2.136,1.256-3.442,3.678-3.911" transform="translate(-34.154 -40.609)" style="fill:#7347ff"/><path id="Fill-480" d="M450.936,318.114a3.235,3.235,0,1,1-6.468.057A2.912,2.912,0,0,1,447.485,315a2.969,2.969,0,0,1,3.451,3.111" transform="translate(-34.154 -40.609)" style="fill:#7347ff"/><path id="Fill-481" d="M387.024,412.684a3.177,3.177,0,1,1,3-3.251,3.229,3.229,0,0,1-3,3.251" transform="translate(-34.154 -40.609)" style="fill:#7347ff"/><path id="Fill-482" d="M112.9,406.368a3.144,3.144,0,1,1-2.99,3.29,3.241,3.241,0,0,1,2.99-3.29" transform="translate(-34.154 -40.609)" style="fill:#7347ff"/><path id="Fill-483" d="M344.322,59.807a3.108,3.108,0,1,1-6.191-.519,3.336,3.336,0,0,1,3.161-2.744,3.274,3.274,0,0,1,3.03,3.263" transform="translate(-34.154 -40.609)" style="fill:#7347ff"/><path id="Fill-484" d="M161.795,59.6a3.55,3.55,0,0,1-2.778,3.1A3.342,3.342,0,0,1,155.6,60a3.434,3.434,0,0,1,2.749-3.422c1.912.027,2.984,1.06,3.446,3.019" transform="translate(-34.154 -40.609)" style="fill:#7347ff"/><path id="Fill-485" d="M402.038,391.123a3.176,3.176,0,1,1-3.146,3.106,3.206,3.206,0,0,1,3.146-3.106" transform="translate(-34.154 -40.609)" style="fill:#7347ff"/><path id="Fill-486" d="M97.959,391.123a3.176,3.176,0,1,1-3.3,2.957,3.2,3.2,0,0,1,3.3-2.957" transform="translate(-34.154 -40.609)" style="fill:#7347ff"/><path id="Fill-487" d="M55.376,318.313a3.175,3.175,0,1,1-3-3.251,3.2,3.2,0,0,1,3,3.251" transform="translate(-34.154 -40.609)" style="fill:#7347ff"/><path id="Fill-488" d="M204.2,41.332a3.1,3.1,0,1,1,.049,6.2,3.321,3.321,0,0,1-3.032-2.883,3.287,3.287,0,0,1,2.983-3.315" transform="translate(-34.154 -40.609)" style="fill:#7347ff"/><path id="Fill-489" d="M298.687,44.393a3.1,3.1,0,1,1-6.2-.114,3.33,3.33,0,0,1,2.967-2.948,3.263,3.263,0,0,1,3.231,3.062" transform="translate(-34.154 -40.609)" style="fill:#7347ff"/><path id="Fill-490" d="M417.271,382.186a3.1,3.1,0,1,1,.206-6.2,3.308,3.308,0,0,1,2.9,3.012,3.257,3.257,0,0,1-3.107,3.188" transform="translate(-34.154 -40.609)" style="fill:#7347ff"/><path id="Fill-491" d="M85.727,379.249a3.108,3.108,0,1,1-6.191-.519,3.333,3.333,0,0,1,3.161-2.744,3.275,3.275,0,0,1,3.03,3.263" transform="translate(-34.154 -40.609)" style="fill:#7347ff"/><path id="Fill-492" d="M310.787,457.957c-1.837-.9-1.837-.9-2.806-2.694a2.981,2.981,0,0,1,2.814-2.935,3.048,3.048,0,0,1,2.818,2.736,2.959,2.959,0,0,1-2.826,2.893" transform="translate(-34.154 -40.609)" style="fill:#7347ff"/><path id="Fill-493" d="M189.124,457.956a3.042,3.042,0,0,1-2.831-2.7,2.966,2.966,0,0,1,2.789-2.928c1.855.882,1.855.882,2.843,2.647a2.986,2.986,0,0,1-2.8,2.98" transform="translate(-34.154 -40.609)" style="fill:#7347ff"/><path id="Fill-494" d="M463.051,269.742c1.817,1.058,1.817,1.058,2.664,2.915-.9,1.805-.9,1.805-2.689,2.761a3.036,3.036,0,0,1-2.915-2.587c.042-1.674.956-2.689,2.94-3.089" transform="translate(-34.154 -40.609)" style="fill:#7347ff"/><path id="Fill-495" d="M371.622,427.666c-1.785-.465-2.684-1.4-2.873-2.955a3.22,3.22,0,0,1,2.709-2.891,3.16,3.16,0,0,1,3.089,2.737,3.262,3.262,0,0,1-2.925,3.109" transform="translate(-34.154 -40.609)" style="fill:#7347ff"/><path id="Fill-496" d="M125.33,424.778a3.3,3.3,0,0,1,2.88-2.96,3.131,3.131,0,0,1,2.95,2.868,3.228,3.228,0,0,1-2.674,2.928c-1.689-.057-2.7-1.008-3.156-2.836" transform="translate(-34.154 -40.609)" style="fill:#7347ff"/><path id="Fill-497" d="M459.984,242.25a3.3,3.3,0,0,1,2.86-2.97,3.122,3.122,0,0,1,2.965,2.836c-.876,1.89-.876,1.89-2.6,2.958-1.743-.042-2.761-.989-3.225-2.824" transform="translate(-34.154 -40.609)" style="fill:#7347ff"/><path id="Fill-498" d="M34.154,242.22a3.09,3.09,0,0,1,2.823-2.848,3.032,3.032,0,0,1,2.829,2.667,2.975,2.975,0,0,1-2.779,2.955,3.092,3.092,0,0,1-2.873-2.774" transform="translate(-34.154 -40.609)" style="fill:#7347ff"/><path id="Fill-499" d="M39.442,272.647a2.352,2.352,0,0,1-2.682,2.406,2.323,2.323,0,0,1-2.22-2.5,2.451,2.451,0,1,1,4.9.089" transform="translate(-34.154 -40.609)" style="fill:#7347ff"/><path id="Fill-500" d="M462.905,214.154a2.312,2.312,0,0,1-2.386-2.312,2.4,2.4,0,1,1,4.79.02,2.3,2.3,0,0,1-2.4,2.292" transform="translate(-34.154 -40.609)" style="fill:#7347ff"/><path id="Fill-501" d="M432.348,361.422a2.35,2.35,0,0,1,2.592,2.5,2.31,2.31,0,0,1-2.309,2.406,2.355,2.355,0,0,1-2.595-2.5,2.314,2.314,0,0,1,2.312-2.406" transform="translate(-34.154 -40.609)" style="fill:#7347ff"/><path id="Fill-502" d="M143.355,437.642a2.35,2.35,0,0,1,2.384,2.538,2.216,2.216,0,0,1-2.329,2.024,2.285,2.285,0,0,1-2.208-2.523,2.239,2.239,0,0,1,2.153-2.039" transform="translate(-34.154 -40.609)" style="fill:#7347ff"/><path id="Fill-503" d="M67.458,361.422a2.351,2.351,0,0,1,2.406,2.682,2.323,2.323,0,0,1-2.5,2.22,2.451,2.451,0,1,1,.089-4.9" transform="translate(-34.154 -40.609)" style="fill:#7347ff"/><path id="Fill-504" d="M39.34,211.733a2.349,2.349,0,0,1-2.419,2.371,2.323,2.323,0,0,1-2.264-2.51,2.232,2.232,0,0,1,2.215-2.173,2.317,2.317,0,0,1,2.468,2.312" transform="translate(-34.154 -40.609)" style="fill:#7347ff"/><path id="Fill-505" d="M52.343,163.673a2.311,2.311,0,0,1,2.31,2.406,2.354,2.354,0,0,1-2.593,2.5,2.3,2.3,0,0,1-2.309-2.4,2.35,2.35,0,0,1,2.592-2.5" transform="translate(-34.154 -40.609)" style="fill:#7347ff"/><path id="Fill-506" d="M447.564,168.574a2.389,2.389,0,0,1-2.312-2.778,2.364,2.364,0,0,1,2.59-2.123,2.455,2.455,0,1,1-.278,4.9" transform="translate(-34.154 -40.609)" style="fill:#7347ff"/></g></svg>